<?xml version="1.0" encoding="UTF-8" standalone="no"?>
<!DOCTYPE svg PUBLIC "-//W3C//DTD SVG 1.1//EN"
 "http://www.w3.org/Graphics/SVG/1.1/DTD/svg11.dtd">
<!-- Generated by graphviz version 13.1.2 (20250808.2320)
 -->
<!-- Title: microservice&#45;projekt Pages: 1 -->
<svg width="758pt" height="516pt"
 viewBox="0.00 0.00 758.00 516.00" xmlns="http://www.w3.org/2000/svg" xmlns:xlink="http://www.w3.org/1999/xlink">
<g id="graph0" class="graph" transform="scale(1 1) rotate(0) translate(4 512.42)">
<title>microservice&#45;projekt</title>
<polygon fill="white" stroke="none" points="-4,4 -4,-512.42 753.75,-512.42 753.75,4 -4,4"/>
<!-- microservice&#45;projekt -->
<g id="node1" class="node">
<title>microservice&#45;projekt</title>
<polygon fill="lightgrey" stroke="black" points="137.5,-291 0,-291 0,-255 137.5,-255 137.5,-291"/>
<text xml:space="preserve" text-anchor="middle" x="68.75" y="-267.57" font-family="Arial" font-size="14.00">microservice&#45;projekt</text>
</g>
<!-- facet&#45;kmedia -->
<g id="node2" class="node">
<title>facet&#45;kmedia</title>
<polygon fill="none" stroke="black" points="459.75,-150 365.75,-150 365.75,-114 459.75,-114 459.75,-150"/>
<text xml:space="preserve" text-anchor="middle" x="412.75" y="-126.58" font-family="Arial" font-size="14.00">facet&#45;kmedia</text>
</g>
<!-- microservice&#45;projekt&#45;&gt;facet&#45;kmedia -->
<g id="edge1" class="edge">
<title>microservice&#45;projekt&#45;&gt;facet&#45;kmedia</title>
<path fill="none" stroke="black" d="M97.52,-254.53C117.94,-241.48 146.69,-224.22 173.5,-212 234.61,-184.14 308.37,-160.86 357.47,-146.72"/>
<polygon fill="black" stroke="black" points="357.93,-149.14 363.98,-144.87 356.58,-144.43 357.93,-149.14"/>
</g>
<!-- facet&#45;strukture&#45;common -->
<g id="node3" class="node">
<title>facet&#45;strukture&#45;common</title>
<polygon fill="none" stroke="black" points="492.75,-453 332.75,-453 332.75,-417 492.75,-417 492.75,-453"/>
<text xml:space="preserve" text-anchor="middle" x="412.75" y="-429.57" font-family="Arial" font-size="14.00">facet&#45;strukture&#45;common</text>
</g>
<!-- microservice&#45;projekt&#45;&gt;facet&#45;strukture&#45;common -->
<g id="edge2" class="edge">
<title>microservice&#45;projekt&#45;&gt;facet&#45;strukture&#45;common</title>
<path fill="none" stroke="black" d="M76.96,-291.43C90.49,-323.21 122.95,-387.63 173.5,-416 218.73,-441.38 276.59,-446.51 323.97,-445.11"/>
<polygon fill="black" stroke="black" points="323.97,-447.56 330.87,-444.84 323.78,-442.66 323.97,-447.56"/>
</g>
<!-- facet&#45;organization -->
<g id="node4" class="node">
<title>facet&#45;organization</title>
<polygon fill="none" stroke="black" points="296.75,-407 173.5,-407 173.5,-371 296.75,-371 296.75,-407"/>
<text xml:space="preserve" text-anchor="middle" x="235.12" y="-383.57" font-family="Arial" font-size="14.00">facet&#45;organization</text>
</g>
<!-- microservice&#45;projekt&#45;&gt;facet&#45;organization -->
<g id="edge3" class="edge">
<title>microservice&#45;projekt&#45;&gt;facet&#45;organization</title>
<path fill="none" stroke="black" d="M95.8,-291.38C124.33,-311.51 170.15,-343.85 201.16,-365.74"/>
<polygon fill="black" stroke="black" points="199.56,-367.61 206.69,-369.64 202.39,-363.6 199.56,-367.61"/>
</g>
<!-- facet&#45;generator&#45;text -->
<g id="node5" class="node">
<title>facet&#45;generator&#45;text</title>
<polygon fill="none" stroke="black" points="479.62,-350 345.88,-350 345.88,-314 479.62,-314 479.62,-350"/>
<text xml:space="preserve" text-anchor="middle" x="412.75" y="-326.57" font-family="Arial" font-size="14.00">facet&#45;generator&#45;text</text>
</g>
<!-- microservice&#45;projekt&#45;&gt;facet&#45;generator&#45;text -->
<g id="edge4" class="edge">
<title>microservice&#45;projekt&#45;&gt;facet&#45;generator&#45;text</title>
<path fill="none" stroke="black" d="M135.89,-291.49C148.33,-294.6 161.26,-297.6 173.5,-300 227.87,-310.69 289.94,-318.9 337.08,-324.32"/>
<polygon fill="black" stroke="black" points="336.67,-326.74 343.91,-325.1 337.23,-321.87 336.67,-326.74"/>
</g>
<!-- facet&#45;email -->
<g id="node6" class="node">
<title>facet&#45;email</title>
<polygon fill="none" stroke="black" points="454.12,-204 371.38,-204 371.38,-168 454.12,-168 454.12,-204"/>
<text xml:space="preserve" text-anchor="middle" x="412.75" y="-180.57" font-family="Arial" font-size="14.00">facet&#45;email</text>
</g>
<!-- microservice&#45;projekt&#45;&gt;facet&#45;email -->
<g id="edge5" class="edge">
<title>microservice&#45;projekt&#45;&gt;facet&#45;email</title>
<path fill="none" stroke="black" d="M137.82,-255.2C149.71,-252.12 161.96,-248.95 173.5,-246 239.12,-229.2 315.02,-210.15 363.18,-198.11"/>
<polygon fill="black" stroke="black" points="363.59,-200.54 369.79,-196.46 362.4,-195.78 363.59,-200.54"/>
</g>
<!-- facet&#45;kaccess -->
<g id="node7" class="node">
<title>facet&#45;kaccess</title>
<polygon fill="none" stroke="black" points="462,-89 363.5,-89 363.5,-53 462,-53 462,-89"/>
<text xml:space="preserve" text-anchor="middle" x="412.75" y="-65.58" font-family="Arial" font-size="14.00">facet&#45;kaccess</text>
</g>
<!-- microservice&#45;projekt&#45;&gt;facet&#45;kaccess -->
<g id="edge6" class="edge">
<title>microservice&#45;projekt&#45;&gt;facet&#45;kaccess</title>
<path fill="none" stroke="black" d="M82.53,-254.85C100.38,-230.66 134.97,-187.91 173.5,-162 230,-124.01 304.59,-98.82 355.15,-84.77"/>
<polygon fill="black" stroke="black" points="355.48,-87.22 361.59,-83.01 354.19,-82.49 355.48,-87.22"/>
</g>
<!-- facet&#45;bpmn -->
<g id="node8" class="node">
<title>facet&#45;bpmn</title>
<polygon fill="none" stroke="black" points="277.25,-291 193,-291 193,-255 277.25,-255 277.25,-291"/>
<text xml:space="preserve" text-anchor="middle" x="235.12" y="-267.57" font-family="Arial" font-size="14.00">facet&#45;bpmn</text>
</g>
<!-- microservice&#45;projekt&#45;&gt;facet&#45;bpmn -->
<g id="edge7" class="edge">
<title>microservice&#45;projekt&#45;&gt;facet&#45;bpmn</title>
<path fill="none" stroke="black" d="M137.56,-273C153.23,-273 169.62,-273 184.36,-273"/>
<polygon fill="black" stroke="black" points="184.31,-275.45 191.31,-273 184.31,-270.55 184.31,-275.45"/>
</g>
<!-- facet&#45;core -->
<g id="node9" class="node">
<title>facet&#45;core</title>
<polygon fill="none" stroke="black" points="749.75,-269 673.75,-269 673.75,-233 749.75,-233 749.75,-269"/>
<text xml:space="preserve" text-anchor="middle" x="711.75" y="-245.57" font-family="Arial" font-size="14.00">facet&#45;core</text>
</g>
<!-- facet&#45;kmedia&#45;&gt;facet&#45;core -->
<g id="edge22" class="edge">
<title>facet&#45;kmedia&#45;&gt;facet&#45;core</title>
<path fill="none" stroke="black" d="M459.97,-138.58C506.74,-146.55 580.16,-162.69 637.75,-192 655.47,-201.02 672.89,-214.85 686.26,-226.85"/>
<polygon fill="black" stroke="black" points="684.56,-228.61 691.37,-231.54 687.87,-225 684.56,-228.61"/>
</g>
<!-- facet&#45;dataverse -->
<g id="node14" class="node">
<title>facet&#45;dataverse</title>
<polygon fill="none" stroke="black" points="637.75,-128 528.75,-128 528.75,-92 637.75,-92 637.75,-128"/>
<text xml:space="preserve" text-anchor="middle" x="583.25" y="-104.58" font-family="Arial" font-size="14.00">facet&#45;dataverse</text>
</g>
<!-- facet&#45;kmedia&#45;&gt;facet&#45;dataverse -->
<g id="edge23" class="edge">
<title>facet&#45;kmedia&#45;&gt;facet&#45;dataverse</title>
<path fill="none" stroke="black" d="M460.24,-125.93C478.74,-123.52 500.29,-120.7 520.1,-118.11"/>
<polygon fill="black" stroke="black" points="520.34,-120.55 526.96,-117.22 519.71,-115.7 520.34,-120.55"/>
</g>
<!-- facet&#45;strukture&#45;common&#45;&gt;facet&#45;core -->
<g id="edge25" class="edge">
<title>facet&#45;strukture&#45;common&#45;&gt;facet&#45;core</title>
<path fill="none" stroke="black" d="M480.27,-453.46C528.14,-462.63 592.07,-466.02 637.75,-435 690.17,-399.4 704.95,-319.63 709.12,-277.78"/>
<polygon fill="black" stroke="black" points="711.54,-278.16 709.72,-270.97 706.66,-277.72 711.54,-278.16"/>
</g>
<!-- facet&#45;oauth2 -->
<g id="node11" class="node">
<title>facet&#45;oauth2</title>
<polygon fill="none" stroke="black" points="628.75,-426 537.75,-426 537.75,-390 628.75,-390 628.75,-426"/>
<text xml:space="preserve" text-anchor="middle" x="583.25" y="-402.57" font-family="Arial" font-size="14.00">facet&#45;oauth2</text>
</g>
<!-- facet&#45;strukture&#45;common&#45;&gt;facet&#45;oauth2 -->
<g id="edge26" class="edge">
<title>facet&#45;strukture&#45;common&#45;&gt;facet&#45;oauth2</title>
<path fill="none" stroke="black" d="M493.07,-422.29C505.29,-420.33 517.66,-418.35 529.13,-416.51"/>
<polygon fill="black" stroke="black" points="529.29,-418.97 535.81,-415.44 528.51,-414.13 529.29,-418.97"/>
</g>
<!-- facet&#45;organization&#45;&gt;facet&#45;strukture&#45;common -->
<g id="edge28" class="edge">
<title>facet&#45;organization&#45;&gt;facet&#45;strukture&#45;common</title>
<path fill="none" stroke="black" d="M297.06,-404.96C308.76,-408.02 321.17,-411.27 333.33,-414.46"/>
<polygon fill="black" stroke="black" points="332.42,-416.76 339.82,-416.16 333.67,-412.02 332.42,-416.76"/>
</g>
<!-- facet&#45;organization&#45;&gt;facet&#45;core -->
<g id="edge29" class="edge">
<title>facet&#45;organization&#45;&gt;facet&#45;core</title>
<path fill="none" stroke="black" d="M252.91,-407.25C270.71,-425.14 300.66,-451.24 332.75,-462 461.27,-505.09 527.55,-539.94 637.75,-461 697.15,-418.45 708.62,-324 710.56,-277.67"/>
<polygon fill="black" stroke="black" points="713.01,-277.93 710.78,-270.86 708.11,-277.77 713.01,-277.93"/>
</g>
<!-- facet&#45;organization&#45;&gt;facet&#45;oauth2 -->
<g id="edge30" class="edge">
<title>facet&#45;organization&#45;&gt;facet&#45;oauth2</title>
<path fill="none" stroke="black" d="M297.21,-392.35C363.05,-395.97 466.79,-401.66 529.29,-405.09"/>
<polygon fill="black" stroke="black" points="528.82,-407.52 535.95,-405.46 529.09,-402.63 528.82,-407.52"/>
</g>
<!-- facet&#45;generator&#45;text&#45;&gt;facet&#45;core -->
<g id="edge14" class="edge">
<title>facet&#45;generator&#45;text&#45;&gt;facet&#45;core</title>
<path fill="none" stroke="black" d="M479.89,-317.61C524.75,-307.41 585.2,-292.76 637.75,-277 646.82,-274.28 656.42,-271.09 665.57,-267.89"/>
<polygon fill="black" stroke="black" points="666.27,-270.25 672.05,-265.6 664.64,-265.63 666.27,-270.25"/>
</g>
<!-- facet&#45;generator -->
<g id="node12" class="node">
<title>facet&#45;generator</title>
<polygon fill="none" stroke="black" points="637,-372 529.5,-372 529.5,-336 637,-336 637,-372"/>
<text xml:space="preserve" text-anchor="middle" x="583.25" y="-348.57" font-family="Arial" font-size="14.00">facet&#45;generator</text>
</g>
<!-- facet&#45;generator&#45;text&#45;&gt;facet&#45;generator -->
<g id="edge15" class="edge">
<title>facet&#45;generator&#45;text&#45;&gt;facet&#45;generator</title>
<path fill="none" stroke="black" d="M479.86,-340.63C493.38,-342.4 507.54,-344.25 520.88,-345.99"/>
<polygon fill="black" stroke="black" points="520.31,-348.38 527.57,-346.86 520.95,-343.52 520.31,-348.38"/>
</g>
<!-- facet&#45;email&#45;&gt;facet&#45;core -->
<g id="edge17" class="edge">
<title>facet&#45;email&#45;&gt;facet&#45;core</title>
<path fill="none" stroke="black" d="M454.54,-188.36C500,-191.78 575.33,-199.83 637.75,-218 647.76,-220.91 658.17,-224.95 667.88,-229.2"/>
<polygon fill="black" stroke="black" points="666.73,-231.37 674.12,-232.02 668.75,-226.91 666.73,-231.37"/>
</g>
<!-- facet&#45;kaccess&#45;&gt;facet&#45;core -->
<g id="edge18" class="edge">
<title>facet&#45;kaccess&#45;&gt;facet&#45;core</title>
<path fill="none" stroke="black" d="M462.12,-59.95C510.94,-51.7 586.26,-47.22 637.75,-83 684.98,-115.81 701.91,-186.09 707.78,-224.53"/>
<polygon fill="black" stroke="black" points="705.31,-224.59 708.72,-231.18 710.17,-223.91 705.31,-224.59"/>
</g>
<!-- facet&#45;dataset -->
<g id="node13" class="node">
<title>facet&#45;dataset</title>
<polygon fill="none" stroke="black" points="630.25,-36 536.25,-36 536.25,0 630.25,0 630.25,-36"/>
<text xml:space="preserve" text-anchor="middle" x="583.25" y="-12.57" font-family="Arial" font-size="14.00">facet&#45;dataset</text>
</g>
<!-- facet&#45;kaccess&#45;&gt;facet&#45;dataset -->
<g id="edge19" class="edge">
<title>facet&#45;kaccess&#45;&gt;facet&#45;dataset</title>
<path fill="none" stroke="black" d="M462.49,-55.67C483,-49.22 506.95,-41.69 528.02,-35.06"/>
<polygon fill="black" stroke="black" points="528.55,-37.46 534.49,-33.02 527.08,-32.78 528.55,-37.46"/>
</g>
<!-- facet&#45;kaccess&#45;&gt;facet&#45;dataverse -->
<g id="edge20" class="edge">
<title>facet&#45;kaccess&#45;&gt;facet&#45;dataverse</title>
<path fill="none" stroke="black" d="M462.49,-82.28C480.52,-86.45 501.2,-91.24 520.25,-95.65"/>
<polygon fill="black" stroke="black" points="519.46,-97.98 526.83,-97.17 520.56,-93.21 519.46,-97.98"/>
</g>
<!-- facet&#45;bpmn&#45;&gt;facet&#45;generator&#45;text -->
<g id="edge10" class="edge">
<title>facet&#45;bpmn&#45;&gt;facet&#45;generator&#45;text</title>
<path fill="none" stroke="black" d="M277.75,-286.98C298.98,-294.12 325.25,-302.94 348.89,-310.88"/>
<polygon fill="black" stroke="black" points="347.95,-313.15 355.36,-313.06 349.51,-308.51 347.95,-313.15"/>
</g>
<!-- facet&#45;bpmn&#45;&gt;facet&#45;email -->
<g id="edge9" class="edge">
<title>facet&#45;bpmn&#45;&gt;facet&#45;email</title>
<path fill="none" stroke="black" d="M266.03,-254.61C284.85,-243.38 309.82,-229.11 332.75,-218 342.51,-213.27 353.16,-208.62 363.39,-204.4"/>
<polygon fill="black" stroke="black" points="364.15,-206.74 369.71,-201.83 362.3,-202.2 364.15,-206.74"/>
</g>
<!-- facet&#45;bpmn&#45;&gt;facet&#45;core -->
<g id="edge8" class="edge">
<title>facet&#45;bpmn&#45;&gt;facet&#45;core</title>
<path fill="none" stroke="black" d="M277.63,-261.41C294.57,-257.24 314.46,-253.06 332.75,-251 451.97,-237.6 593.69,-243.34 664.97,-247.71"/>
<polygon fill="black" stroke="black" points="664.66,-250.15 671.8,-248.14 664.96,-245.26 664.66,-250.15"/>
</g>
<!-- facet&#45;acl -->
<g id="node10" class="node">
<title>facet&#45;acl</title>
<polygon fill="none" stroke="black" points="446.25,-296 379.25,-296 379.25,-260 446.25,-260 446.25,-296"/>
<text xml:space="preserve" text-anchor="middle" x="412.75" y="-272.57" font-family="Arial" font-size="14.00">facet&#45;acl</text>
</g>
<!-- facet&#45;bpmn&#45;&gt;facet&#45;acl -->
<g id="edge11" class="edge">
<title>facet&#45;bpmn&#45;&gt;facet&#45;acl</title>
<path fill="none" stroke="black" d="M277.75,-274.18C305.78,-274.98 342.6,-276.03 370.55,-276.83"/>
<polygon fill="black" stroke="black" points="370.34,-279.27 377.41,-277.02 370.48,-274.37 370.34,-279.27"/>
</g>
<!-- facet&#45;acl&#45;&gt;facet&#45;core -->
<g id="edge12" class="edge">
<title>facet&#45;acl&#45;&gt;facet&#45;core</title>
<path fill="none" stroke="black" d="M446.67,-275.01C499.9,-270.17 604.97,-260.62 665.29,-255.13"/>
<polygon fill="black" stroke="black" points="665.24,-257.6 671.99,-254.52 664.8,-252.72 665.24,-257.6"/>
</g>
<!-- facet&#45;acl&#45;&gt;facet&#45;oauth2 -->
<g id="edge13" class="edge">
<title>facet&#45;acl&#45;&gt;facet&#45;oauth2</title>
<path fill="none" stroke="black" d="M446.75,-283.15C462.21,-286.98 479.99,-293.61 492.75,-305 520.63,-329.89 502.65,-354.24 528.75,-381 530.02,-382.3 531.36,-383.55 532.77,-384.75"/>
<polygon fill="black" stroke="black" points="531,-386.48 538.05,-388.77 533.96,-382.58 531,-386.48"/>
</g>
<!-- facet&#45;oauth2&#45;&gt;facet&#45;core -->
<g id="edge27" class="edge">
<title>facet&#45;oauth2&#45;&gt;facet&#45;core</title>
<path fill="none" stroke="black" d="M626.75,-389.63C630.69,-387.04 634.44,-384.16 637.75,-381 668.73,-351.36 690.18,-305.65 701.47,-277.07"/>
<polygon fill="black" stroke="black" points="703.75,-277.97 703.97,-270.56 699.17,-276.21 703.75,-277.97"/>
</g>
<!-- facet&#45;generator&#45;&gt;facet&#45;core -->
<g id="edge16" class="edge">
<title>facet&#45;generator&#45;&gt;facet&#45;core</title>
<path fill="none" stroke="black" d="M617.86,-335.53C624.64,-331.36 631.57,-326.75 637.75,-322 656.03,-307.95 674.62,-289.8 688.47,-275.36"/>
<polygon fill="black" stroke="black" points="690.02,-277.29 693.06,-270.53 686.46,-273.92 690.02,-277.29"/>
</g>
<!-- facet&#45;dataset&#45;&gt;facet&#45;core -->
<g id="edge21" class="edge">
<title>facet&#45;dataset&#45;&gt;facet&#45;core</title>
<path fill="none" stroke="black" d="M622.5,-36.36C628.14,-40.28 633.48,-44.83 637.75,-50 681.11,-102.53 699.81,-182.99 706.93,-224.38"/>
<polygon fill="black" stroke="black" points="704.48,-224.59 708.03,-231.1 709.32,-223.79 704.48,-224.59"/>
</g>
<!-- facet&#45;dataverse&#45;&gt;facet&#45;core -->
<g id="edge24" class="edge">
<title>facet&#45;dataverse&#45;&gt;facet&#45;core</title>
<path fill="none" stroke="black" d="M620.08,-128.4C626.32,-132.43 632.49,-137.01 637.75,-142 663.52,-166.49 685.01,-201.64 697.85,-225.35"/>
<polygon fill="black" stroke="black" points="695.55,-226.25 701,-231.28 699.88,-223.95 695.55,-226.25"/>
</g>
</g>
</svg>
