<?xml version="1.0" encoding="UTF-8" standalone="no"?>
<!DOCTYPE svg PUBLIC "-//W3C//DTD SVG 1.1//EN"
 "http://www.w3.org/Graphics/SVG/1.1/DTD/svg11.dtd">
<!-- Generated by graphviz version 13.1.2 (20250808.2320)
 -->
<!-- Title: microservice&#45;strukture Pages: 1 -->
<svg width="711pt" height="529pt"
 viewBox="0.00 0.00 711.00 529.00" xmlns="http://www.w3.org/2000/svg" xmlns:xlink="http://www.w3.org/1999/xlink">
<g id="graph0" class="graph" transform="scale(1 1) rotate(0) translate(4 524.5)">
<title>microservice&#45;strukture</title>
<polygon fill="white" stroke="none" points="-4,4 -4,-524.5 706.5,-524.5 706.5,4 -4,4"/>
<!-- microservice&#45;strukture -->
<g id="node1" class="node">
<title>microservice&#45;strukture</title>
<polygon fill="lightgrey" stroke="black" points="149.5,-325.5 0,-325.5 0,-289.5 149.5,-289.5 149.5,-325.5"/>
<text xml:space="preserve" text-anchor="middle" x="74.75" y="-302.08" font-family="Arial" font-size="14.00">microservice&#45;strukture</text>
</g>
<!-- facet&#45;acl -->
<g id="node2" class="node">
<title>facet&#45;acl</title>
<polygon fill="none" stroke="black" points="412.12,-348.5 345.12,-348.5 345.12,-312.5 412.12,-312.5 412.12,-348.5"/>
<text xml:space="preserve" text-anchor="middle" x="378.62" y="-325.08" font-family="Arial" font-size="14.00">facet&#45;acl</text>
</g>
<!-- microservice&#45;strukture&#45;&gt;facet&#45;acl -->
<g id="edge1" class="edge">
<title>microservice&#45;strukture&#45;&gt;facet&#45;acl</title>
<path fill="none" stroke="black" d="M149.98,-313.16C208.78,-317.64 288.72,-323.73 336.55,-327.37"/>
<polygon fill="black" stroke="black" points="336.13,-329.8 343.29,-327.89 336.5,-324.91 336.13,-329.8"/>
</g>
<!-- facet&#45;projekt -->
<g id="node3" class="node">
<title>facet&#45;projekt</title>
<polygon fill="none" stroke="black" points="275.75,-302.5 185.5,-302.5 185.5,-266.5 275.75,-266.5 275.75,-302.5"/>
<text xml:space="preserve" text-anchor="middle" x="230.62" y="-279.08" font-family="Arial" font-size="14.00">facet&#45;projekt</text>
</g>
<!-- microservice&#45;strukture&#45;&gt;facet&#45;projekt -->
<g id="edge2" class="edge">
<title>microservice&#45;strukture&#45;&gt;facet&#45;projekt</title>
<path fill="none" stroke="black" d="M149.98,-296.41C159.07,-295.05 168.2,-293.68 176.88,-292.39"/>
<polygon fill="black" stroke="black" points="176.99,-294.85 183.55,-291.39 176.26,-290 176.99,-294.85"/>
</g>
<!-- facet&#45;email -->
<g id="node4" class="node">
<title>facet&#45;email</title>
<polygon fill="none" stroke="black" points="420,-520.5 337.25,-520.5 337.25,-484.5 420,-484.5 420,-520.5"/>
<text xml:space="preserve" text-anchor="middle" x="378.62" y="-497.08" font-family="Arial" font-size="14.00">facet&#45;email</text>
</g>
<!-- microservice&#45;strukture&#45;&gt;facet&#45;email -->
<g id="edge3" class="edge">
<title>microservice&#45;strukture&#45;&gt;facet&#45;email</title>
<path fill="none" stroke="black" d="M86.04,-325.97C103.05,-354.81 139.71,-410.44 185.5,-441.5 228.99,-471 287.56,-486.88 328.56,-494.97"/>
<polygon fill="black" stroke="black" points="327.95,-497.35 335.28,-496.25 328.86,-492.53 327.95,-497.35"/>
</g>
<!-- facet&#45;generator&#45;text -->
<g id="node5" class="node">
<title>facet&#45;generator&#45;text</title>
<polygon fill="none" stroke="black" points="445.5,-415.5 311.75,-415.5 311.75,-379.5 445.5,-379.5 445.5,-415.5"/>
<text xml:space="preserve" text-anchor="middle" x="378.62" y="-392.08" font-family="Arial" font-size="14.00">facet&#45;generator&#45;text</text>
</g>
<!-- microservice&#45;strukture&#45;&gt;facet&#45;generator&#45;text -->
<g id="edge4" class="edge">
<title>microservice&#45;strukture&#45;&gt;facet&#45;generator&#45;text</title>
<path fill="none" stroke="black" d="M137.57,-325.93C186.93,-340.65 256.12,-361.28 307.54,-376.61"/>
<polygon fill="black" stroke="black" points="306.77,-378.94 314.18,-378.59 308.17,-374.24 306.77,-378.94"/>
</g>
<!-- facet&#45;kaccess -->
<g id="node6" class="node">
<title>facet&#45;kaccess</title>
<polygon fill="none" stroke="black" points="427.88,-137.5 329.38,-137.5 329.38,-101.5 427.88,-101.5 427.88,-137.5"/>
<text xml:space="preserve" text-anchor="middle" x="378.62" y="-114.08" font-family="Arial" font-size="14.00">facet&#45;kaccess</text>
</g>
<!-- microservice&#45;strukture&#45;&gt;facet&#45;kaccess -->
<g id="edge5" class="edge">
<title>microservice&#45;strukture&#45;&gt;facet&#45;kaccess</title>
<path fill="none" stroke="black" d="M91.29,-289.32C111.26,-266.82 147.87,-228.45 185.5,-203.5 228.03,-175.31 281.58,-152.81 321.33,-138.22"/>
<polygon fill="black" stroke="black" points="321.92,-140.61 327.67,-135.92 320.25,-136.01 321.92,-140.61"/>
</g>
<!-- facet&#45;bpmn -->
<g id="node7" class="node">
<title>facet&#45;bpmn</title>
<polygon fill="none" stroke="black" points="272.75,-432.5 188.5,-432.5 188.5,-396.5 272.75,-396.5 272.75,-432.5"/>
<text xml:space="preserve" text-anchor="middle" x="230.62" y="-409.08" font-family="Arial" font-size="14.00">facet&#45;bpmn</text>
</g>
<!-- microservice&#45;strukture&#45;&gt;facet&#45;bpmn -->
<g id="edge6" class="edge">
<title>microservice&#45;strukture&#45;&gt;facet&#45;bpmn</title>
<path fill="none" stroke="black" d="M102.2,-325.9C128.26,-344.02 168.16,-371.76 196.36,-391.37"/>
<polygon fill="black" stroke="black" points="194.87,-393.32 202.02,-395.31 197.67,-389.3 194.87,-393.32"/>
</g>
<!-- facet&#45;kmedia -->
<g id="node9" class="node">
<title>facet&#45;kmedia</title>
<polygon fill="none" stroke="black" points="425.62,-64.5 331.62,-64.5 331.62,-28.5 425.62,-28.5 425.62,-64.5"/>
<text xml:space="preserve" text-anchor="middle" x="378.62" y="-41.08" font-family="Arial" font-size="14.00">facet&#45;kmedia</text>
</g>
<!-- microservice&#45;strukture&#45;&gt;facet&#45;kmedia -->
<g id="edge11" class="edge">
<title>microservice&#45;strukture&#45;&gt;facet&#45;kmedia</title>
<path fill="none" stroke="black" d="M85.45,-289.04C102.39,-258.12 139.96,-195.28 185.5,-154.5 227.28,-117.09 284.19,-87.12 325.21,-68.33"/>
<polygon fill="black" stroke="black" points="326.19,-70.58 331.56,-65.46 324.17,-66.11 326.19,-70.58"/>
</g>
<!-- facet&#45;doks -->
<g id="node10" class="node">
<title>facet&#45;doks</title>
<polygon fill="none" stroke="black" points="269.75,-248.5 191.5,-248.5 191.5,-212.5 269.75,-212.5 269.75,-248.5"/>
<text xml:space="preserve" text-anchor="middle" x="230.62" y="-225.08" font-family="Arial" font-size="14.00">facet&#45;doks</text>
</g>
<!-- microservice&#45;strukture&#45;&gt;facet&#45;doks -->
<g id="edge12" class="edge">
<title>microservice&#45;strukture&#45;&gt;facet&#45;doks</title>
<path fill="none" stroke="black" d="M112.61,-289.06C134.41,-278.15 162.18,-264.25 185.2,-252.73"/>
<polygon fill="black" stroke="black" points="186.29,-254.93 191.45,-249.61 184.09,-250.55 186.29,-254.93"/>
</g>
<!-- facet&#45;core -->
<g id="node8" class="node">
<title>facet&#45;core</title>
<polygon fill="none" stroke="black" points="702.5,-275.5 626.5,-275.5 626.5,-239.5 702.5,-239.5 702.5,-275.5"/>
<text xml:space="preserve" text-anchor="middle" x="664.5" y="-252.08" font-family="Arial" font-size="14.00">facet&#45;core</text>
</g>
<!-- facet&#45;acl&#45;&gt;facet&#45;core -->
<g id="edge19" class="edge">
<title>facet&#45;acl&#45;&gt;facet&#45;core</title>
<path fill="none" stroke="black" d="M412.27,-332.9C454.78,-334.84 530.72,-334.24 590.5,-311.5 608.23,-304.76 625.42,-292.43 638.66,-281.25"/>
<polygon fill="black" stroke="black" points="640.01,-283.32 643.68,-276.88 636.79,-279.62 640.01,-283.32"/>
</g>
<!-- facet&#45;oauth2 -->
<g id="node13" class="node">
<title>facet&#45;oauth2</title>
<polygon fill="none" stroke="black" points="581.5,-302.5 490.5,-302.5 490.5,-266.5 581.5,-266.5 581.5,-302.5"/>
<text xml:space="preserve" text-anchor="middle" x="536" y="-279.08" font-family="Arial" font-size="14.00">facet&#45;oauth2</text>
</g>
<!-- facet&#45;acl&#45;&gt;facet&#45;oauth2 -->
<g id="edge20" class="edge">
<title>facet&#45;acl&#45;&gt;facet&#45;oauth2</title>
<path fill="none" stroke="black" d="M412.58,-320.75C432.74,-314.78 458.99,-307 482.02,-300.19"/>
<polygon fill="black" stroke="black" points="482.55,-302.59 488.56,-298.25 481.15,-297.89 482.55,-302.59"/>
</g>
<!-- facet&#45;projekt&#45;&gt;facet&#45;oauth2 -->
<g id="edge22" class="edge">
<title>facet&#45;projekt&#45;&gt;facet&#45;oauth2</title>
<path fill="none" stroke="black" d="M276.06,-284.5C330.81,-284.5 423.72,-284.5 482.09,-284.5"/>
<polygon fill="black" stroke="black" points="481.93,-286.95 488.93,-284.5 481.93,-282.05 481.93,-286.95"/>
</g>
<!-- facet&#45;email&#45;&gt;facet&#45;core -->
<g id="edge23" class="edge">
<title>facet&#45;email&#45;&gt;facet&#45;core</title>
<path fill="none" stroke="black" d="M420.27,-508.84C466.76,-513.68 542.61,-513.96 590.5,-474.5 648.57,-426.66 660.68,-330.92 663.04,-284.28"/>
<polygon fill="black" stroke="black" points="665.48,-284.5 663.33,-277.41 660.59,-284.3 665.48,-284.5"/>
</g>
<!-- facet&#45;generator&#45;text&#45;&gt;facet&#45;core -->
<g id="edge24" class="edge">
<title>facet&#45;generator&#45;text&#45;&gt;facet&#45;core</title>
<path fill="none" stroke="black" d="M440.1,-415.97C484.95,-425.9 545.79,-431.13 590.5,-403.5 632.72,-377.41 651.34,-318.67 658.89,-284.18"/>
<polygon fill="black" stroke="black" points="661.26,-284.8 660.27,-277.45 656.46,-283.81 661.26,-284.8"/>
</g>
<!-- facet&#45;generator -->
<g id="node14" class="node">
<title>facet&#45;generator</title>
<polygon fill="none" stroke="black" points="589.75,-394.5 482.25,-394.5 482.25,-358.5 589.75,-358.5 589.75,-394.5"/>
<text xml:space="preserve" text-anchor="middle" x="536" y="-371.08" font-family="Arial" font-size="14.00">facet&#45;generator</text>
</g>
<!-- facet&#45;generator&#45;text&#45;&gt;facet&#45;generator -->
<g id="edge25" class="edge">
<title>facet&#45;generator&#45;text&#45;&gt;facet&#45;generator</title>
<path fill="none" stroke="black" d="M445.97,-388.54C455.19,-387.29 464.63,-386.01 473.75,-384.78"/>
<polygon fill="black" stroke="black" points="473.91,-387.23 480.52,-383.87 473.25,-382.38 473.91,-387.23"/>
</g>
<!-- facet&#45;kaccess&#45;&gt;facet&#45;core -->
<g id="edge27" class="edge">
<title>facet&#45;kaccess&#45;&gt;facet&#45;core</title>
<path fill="none" stroke="black" d="M428.33,-103.16C473.78,-91.06 541.73,-81.36 590.5,-111.5 632.72,-137.6 651.34,-196.33 658.89,-230.83"/>
<polygon fill="black" stroke="black" points="656.46,-231.19 660.27,-237.56 661.26,-230.21 656.46,-231.19"/>
</g>
<!-- facet&#45;dataverse -->
<g id="node11" class="node">
<title>facet&#45;dataverse</title>
<polygon fill="none" stroke="black" points="590.5,-64.5 481.5,-64.5 481.5,-28.5 590.5,-28.5 590.5,-64.5"/>
<text xml:space="preserve" text-anchor="middle" x="536" y="-41.08" font-family="Arial" font-size="14.00">facet&#45;dataverse</text>
</g>
<!-- facet&#45;kaccess&#45;&gt;facet&#45;dataverse -->
<g id="edge29" class="edge">
<title>facet&#45;kaccess&#45;&gt;facet&#45;dataverse</title>
<path fill="none" stroke="black" d="M418.83,-101.08C439.9,-91.18 466.02,-78.91 488.16,-68.51"/>
<polygon fill="black" stroke="black" points="489.14,-70.76 494.43,-65.56 487.06,-66.32 489.14,-70.76"/>
</g>
<!-- facet&#45;dataset -->
<g id="node15" class="node">
<title>facet&#45;dataset</title>
<polygon fill="none" stroke="black" points="583,-156.5 489,-156.5 489,-120.5 583,-120.5 583,-156.5"/>
<text xml:space="preserve" text-anchor="middle" x="536" y="-133.08" font-family="Arial" font-size="14.00">facet&#45;dataset</text>
</g>
<!-- facet&#45;kaccess&#45;&gt;facet&#45;dataset -->
<g id="edge28" class="edge">
<title>facet&#45;kaccess&#45;&gt;facet&#45;dataset</title>
<path fill="none" stroke="black" d="M428.36,-125.46C444.88,-127.48 463.44,-129.75 480.39,-131.82"/>
<polygon fill="black" stroke="black" points="479.81,-134.22 487.06,-132.64 480.41,-129.36 479.81,-134.22"/>
</g>
<!-- facet&#45;bpmn&#45;&gt;facet&#45;acl -->
<g id="edge10" class="edge">
<title>facet&#45;bpmn&#45;&gt;facet&#45;acl</title>
<path fill="none" stroke="black" d="M263.67,-396.07C285.63,-383.43 314.91,-366.58 338.29,-353.13"/>
<polygon fill="black" stroke="black" points="339.5,-355.26 344.35,-349.65 337.06,-351.02 339.5,-355.26"/>
</g>
<!-- facet&#45;bpmn&#45;&gt;facet&#45;email -->
<g id="edge8" class="edge">
<title>facet&#45;bpmn&#45;&gt;facet&#45;email</title>
<path fill="none" stroke="black" d="M255.86,-432.95C271.42,-444.4 292.29,-459.07 311.75,-470.5 317.5,-473.88 323.66,-477.22 329.83,-480.39"/>
<polygon fill="black" stroke="black" points="328.33,-482.38 335.68,-483.35 330.54,-478.01 328.33,-482.38"/>
</g>
<!-- facet&#45;bpmn&#45;&gt;facet&#45;generator&#45;text -->
<g id="edge9" class="edge">
<title>facet&#45;bpmn&#45;&gt;facet&#45;generator&#45;text</title>
<path fill="none" stroke="black" d="M273.07,-409.68C282.52,-408.58 292.84,-407.37 303.19,-406.17"/>
<polygon fill="black" stroke="black" points="303.32,-408.62 309.99,-405.38 302.75,-403.75 303.32,-408.62"/>
</g>
<!-- facet&#45;bpmn&#45;&gt;facet&#45;core -->
<g id="edge7" class="edge">
<title>facet&#45;bpmn&#45;&gt;facet&#45;core</title>
<path fill="none" stroke="black" d="M273.13,-430.32C344.57,-454.65 492.5,-492.08 590.5,-427.5 639.12,-395.46 655.49,-323.55 660.9,-284.3"/>
<polygon fill="black" stroke="black" points="663.31,-284.74 661.76,-277.49 658.45,-284.13 663.31,-284.74"/>
</g>
<!-- facet&#45;kmedia&#45;&gt;facet&#45;core -->
<g id="edge13" class="edge">
<title>facet&#45;kmedia&#45;&gt;facet&#45;core</title>
<path fill="none" stroke="black" d="M415.17,-28.04C460.45,-7.37 539.01,18.57 590.5,-19.5 625.04,-45.04 649.96,-174.43 659.37,-230.99"/>
<polygon fill="black" stroke="black" points="656.9,-231.09 660.45,-237.6 661.74,-230.3 656.9,-231.09"/>
</g>
<!-- facet&#45;kmedia&#45;&gt;facet&#45;dataverse -->
<g id="edge14" class="edge">
<title>facet&#45;kmedia&#45;&gt;facet&#45;dataverse</title>
<path fill="none" stroke="black" d="M425.82,-46.5C440.6,-46.5 457.21,-46.5 472.93,-46.5"/>
<polygon fill="black" stroke="black" points="472.54,-48.95 479.54,-46.5 472.54,-44.05 472.54,-48.95"/>
</g>
<!-- facet&#45;doks&#45;&gt;facet&#45;acl -->
<g id="edge17" class="edge">
<title>facet&#45;doks&#45;&gt;facet&#45;acl</title>
<path fill="none" stroke="black" d="M262.19,-248.81C266.77,-251.66 271.41,-254.62 275.75,-257.5 299.92,-273.53 326.54,-292.65 346.5,-307.31"/>
<polygon fill="black" stroke="black" points="344.96,-309.22 352.05,-311.4 347.87,-305.27 344.96,-309.22"/>
</g>
<!-- facet&#45;doks&#45;&gt;facet&#45;core -->
<g id="edge15" class="edge">
<title>facet&#45;doks&#45;&gt;facet&#45;core</title>
<path fill="none" stroke="black" d="M269.99,-218.17C336.94,-198.7 478.65,-166.63 590.5,-203.5 608.77,-209.53 626.21,-222.08 639.46,-233.56"/>
<polygon fill="black" stroke="black" points="637.64,-235.22 644.49,-238.07 640.91,-231.57 637.64,-235.22"/>
</g>
<!-- facet&#45;crypto -->
<g id="node12" class="node">
<title>facet&#45;crypto</title>
<polygon fill="none" stroke="black" points="579.25,-248.5 492.75,-248.5 492.75,-212.5 579.25,-212.5 579.25,-248.5"/>
<text xml:space="preserve" text-anchor="middle" x="536" y="-225.08" font-family="Arial" font-size="14.00">facet&#45;crypto</text>
</g>
<!-- facet&#45;doks&#45;&gt;facet&#45;crypto -->
<g id="edge16" class="edge">
<title>facet&#45;doks&#45;&gt;facet&#45;crypto</title>
<path fill="none" stroke="black" d="M270.05,-230.5C324.41,-230.5 423.87,-230.5 484.25,-230.5"/>
<polygon fill="black" stroke="black" points="483.99,-232.95 490.99,-230.5 483.99,-228.05 483.99,-232.95"/>
</g>
<!-- facet&#45;dataverse&#45;&gt;facet&#45;core -->
<g id="edge31" class="edge">
<title>facet&#45;dataverse&#45;&gt;facet&#45;core</title>
<path fill="none" stroke="black" d="M574.8,-64.82C580.56,-68.76 586.06,-73.33 590.5,-78.5 629.73,-124.19 649.83,-193.77 658.34,-231.3"/>
<polygon fill="black" stroke="black" points="655.87,-231.45 659.76,-237.77 660.65,-230.4 655.87,-231.45"/>
</g>
<!-- facet&#45;crypto&#45;&gt;facet&#45;core -->
<g id="edge18" class="edge">
<title>facet&#45;crypto&#45;&gt;facet&#45;core</title>
<path fill="none" stroke="black" d="M579.47,-239.57C591.84,-242.21 605.4,-245.1 617.94,-247.78"/>
<polygon fill="black" stroke="black" points="617.18,-250.12 624.54,-249.19 618.2,-245.33 617.18,-250.12"/>
</g>
<!-- facet&#45;oauth2&#45;&gt;facet&#45;core -->
<g id="edge21" class="edge">
<title>facet&#45;oauth2&#45;&gt;facet&#45;core</title>
<path fill="none" stroke="black" d="M581.96,-274.91C593.73,-272.39 606.42,-269.69 618.21,-267.17"/>
<polygon fill="black" stroke="black" points="618.39,-269.64 624.72,-265.78 617.37,-264.84 618.39,-269.64"/>
</g>
<!-- facet&#45;generator&#45;&gt;facet&#45;core -->
<g id="edge26" class="edge">
<title>facet&#45;generator&#45;&gt;facet&#45;core</title>
<path fill="none" stroke="black" d="M571.56,-358.15C578.12,-354.04 584.73,-349.42 590.5,-344.5 612.15,-326.05 632.58,-300.76 646.3,-282.2"/>
<polygon fill="black" stroke="black" points="648,-284.02 650.14,-276.92 644.04,-281.14 648,-284.02"/>
</g>
<!-- facet&#45;dataset&#45;&gt;facet&#45;core -->
<g id="edge30" class="edge">
<title>facet&#45;dataset&#45;&gt;facet&#45;core</title>
<path fill="none" stroke="black" d="M571.56,-156.85C578.12,-160.97 584.73,-165.59 590.5,-170.5 612.15,-188.96 632.58,-214.24 646.3,-232.8"/>
<polygon fill="black" stroke="black" points="644.04,-233.87 650.14,-238.08 648,-230.98 644.04,-233.87"/>
</g>
</g>
</svg>
