<svg width="20" height="20" viewBox="0 0 20 20" fill="none" xmlns="http://www.w3.org/2000/svg">
<path fill-rule="evenodd" clip-rule="evenodd" d="M10 0C4.47684 0 0 4.47684 0 10C0 15.5232 4.47684 20 10 20C15.5232 20 20 15.5232 20 10C20 4.47684 15.5232 0 10 0M1 10C1 14.9705 5.02947 19 10 19C14.9705 19 19 14.9705 19 10C19 5.02947 14.9705 1 10 1C5.02947 1 1 5.02947 1 10" fill="#323643"/>
<path d="M10.1609 7.2365C10.821 7.2365 11.3363 6.7395 11.3363 6.12254C11.3363 5.497 10.821 5 10.1609 5C9.50995 5 8.98553 5.497 8.98553 6.12254C8.98553 6.7395 9.50995 7.2365 10.1609 7.2365ZM8.66004 15H12.34C12.7107 15 13 14.7515 13 14.4002C13 14.066 12.7107 13.8003 12.34 13.8003H11.2188V9.43873C11.2188 8.97601 10.9747 8.66752 10.5136 8.66752H8.81374C8.44304 8.66752 8.15371 8.93316 8.15371 9.26735C8.15371 9.61868 8.44304 9.86718 8.81374 9.86718H9.78119V13.8003H8.66004C8.28933 13.8003 8 14.066 8 14.4002C8 14.7515 8.28933 15 8.66004 15Z" fill="#323643"/>
</svg>
