<svg width="54" height="86" viewBox="0 0 54 86" fill="none" xmlns="http://www.w3.org/2000/svg">
<path d="M13.99 57.97H18.89" stroke="#004680" stroke-width="1.5" stroke-linejoin="round"/>
<path d="M33.99 57.97H38.89" stroke="#004680" stroke-width="1.5" stroke-linejoin="round"/>
<path d="M17.67 84.3998L21 81.5998L13.33 72.7498L17.33 65.0898" stroke="#004680" stroke-width="1.5" stroke-linecap="round" stroke-linejoin="round"/>
<path d="M35.67 84.3998L32.33 81.5998L40 72.7498L36 65.0898" stroke="#004680" stroke-width="1.5" stroke-linecap="round" stroke-linejoin="round"/>
<path d="M27.04 25.1199C33.7282 25.1199 39.15 19.6981 39.15 13.0099C39.15 6.32173 33.7282 0.899902 27.04 0.899902C20.3518 0.899902 14.93 6.32173 14.93 13.0099C14.93 19.6981 20.3518 25.1199 27.04 25.1199Z" stroke="#004680" stroke-width="1.5" stroke-linejoin="round"/>
<path d="M13.44 48.15V32.26C13.44 30.19 15.95 28.52 19.04 28.52C22.46 31.64 25.03 33.19 26.74 33.19C28.45 33.19 31.02 31.63 34.44 28.52C37.53 28.52 40.04 30.19 40.04 32.26V48.15H13.44Z" stroke="#004680" stroke-width="1.5" stroke-linejoin="round"/>
<path d="M19.04 64.6899C16.15 64.6899 14.68 61.1199 13.99 57.9699C13.57 56.0699 13.44 54.3299 13.44 53.6199H40.04C40.04 55.5099 37.53 64.6899 34.44 64.6899H19.04Z" stroke="#FF8D6D" stroke-width="1.5" stroke-linecap="square" stroke-linejoin="round"/>
<path d="M13.4 38.1199C9.07997 38.1199 6.07997 36.9299 4.41997 34.5399C2.74997 32.1499 1.74997 29.0099 1.40997 25.1199" stroke="#004680" stroke-width="1.5" stroke-linecap="round" stroke-linejoin="round"/>
<path d="M52.4 25.1199C52.06 29.0099 51.06 32.1499 49.39 34.5399C47.72 36.9299 44.73 38.1199 40.41 38.1199" stroke="#004680" stroke-width="1.5" stroke-linecap="round" stroke-linejoin="round"/>
</svg>
