<svg width="92" height="83" viewBox="0 0 92 83" fill="none" xmlns="http://www.w3.org/2000/svg">
<path d="M51.53 0.899902L85.97 19.9699L37.21 55.4099L2.37 36.6299L51.53 0.899902Z" stroke="#004680" stroke-width="1.5" stroke-linecap="round" stroke-linejoin="round"/>
<path d="M2.36997 36.63C-0.260026 39.59 2.83997 45.63 6.97997 48.32L38.02 64.67L86.78 29.23" stroke="#004680" stroke-width="1.5" stroke-linecap="round" stroke-linejoin="round"/>
<path d="M86.58 29.05C85.13 27.28 84.51 24.07 84.63 21.96" stroke="#004680" stroke-width="1.5" stroke-linecap="round" stroke-linejoin="round"/>
<path d="M86.98 29.6099L38.22 65.0499L3.38995 46.2799" stroke="#004680" stroke-width="1.5" stroke-linecap="round" stroke-linejoin="round"/>
<path d="M3.38999 46.2799C0.759993 49.2399 3.85999 55.2799 7.99999 57.9699L39.04 74.3199L87.8 38.8799" stroke="#004680" stroke-width="1.5" stroke-linecap="round" stroke-linejoin="round"/>
<path d="M87.59 38.6899C86.14 36.9199 85.52 33.7099 85.64 31.5999" stroke="#004680" stroke-width="1.5" stroke-linecap="round" stroke-linejoin="round"/>
<path d="M52.14 10.5398L70.86 20.9098" stroke="#FF8D6D" stroke-width="1.5" stroke-linecap="round" stroke-linejoin="round"/>
<path d="M46.1 15.23L64.82 25.6" stroke="#FF8D6D" stroke-width="1.5" stroke-linecap="round" stroke-linejoin="round"/>
<path d="M66.65 81.5599C79.8054 81.5599 90.47 70.8953 90.47 57.7399C90.47 44.5845 79.8054 33.9199 66.65 33.9199C53.4945 33.9199 42.83 44.5845 42.83 57.7399C42.83 70.8953 53.4945 81.5599 66.65 81.5599Z" fill="white" stroke="#004680" stroke-width="1.5"/>
<path d="M56.43 36.22L76.87 79.25" stroke="#FF8D6D" stroke-width="1.5" stroke-linecap="round" stroke-linejoin="round"/>
<path d="M45.13 67.96L88.17 47.52" stroke="#FF8D6D" stroke-width="1.5" stroke-linecap="round" stroke-linejoin="round"/>
<path d="M45.59 46.6099L45.82 46.8199C55.54 55.5199 61.36 67.7599 61.96 80.7899V81.0999" stroke="#FF8D6D" stroke-width="1.5" stroke-linecap="round" stroke-linejoin="round"/>
<path d="M71.7 34.2V34.5099C72.31 47.5399 78.13 59.79 87.85 68.48L88.08 68.69" stroke="#FF8D6D" stroke-width="1.5" stroke-linecap="round" stroke-linejoin="round"/>
<path d="M66.65 81.5599C79.8054 81.5599 90.47 70.8953 90.47 57.7399C90.47 44.5845 79.8054 33.9199 66.65 33.9199C53.4945 33.9199 42.83 44.5845 42.83 57.7399C42.83 70.8953 53.4945 81.5599 66.65 81.5599Z" stroke="#004680" stroke-width="1.5"/>
</svg>
