<svg width="103" height="64" viewBox="0 0 103 64" fill="none" xmlns="http://www.w3.org/2000/svg">
<path d="M102.14 21.2699L51.77 41.6399L1.40002 21.2699L51.77 0.899902L102.14 21.2699Z" stroke="#13487F" stroke-width="1.5" stroke-linejoin="round"/>
<path d="M83.06 46.0698L83.91 46.8198L51.77 59.8198L19.63 46.8198L20.73 46.3798" stroke="#13487F" stroke-width="1.5" stroke-linejoin="round"/>
<path d="M19.63 46.8199V28.6399" stroke="#13487F" stroke-width="1.5" stroke-linejoin="round"/>
<path d="M83.91 46.8198V29.0398" stroke="#13487F" stroke-width="1.5" stroke-linejoin="round"/>
<path d="M51.77 59.8199V41.6399" stroke="#13487F" stroke-width="1.5" stroke-linejoin="round"/>
<path d="M51.77 21.27L26.59 31.46" stroke="#F68C6F" stroke-width="1.5" stroke-linecap="round" stroke-linejoin="round"/>
<path d="M27.8 58.21C27.44 58.38 27.05 58.49 26.62 58.49C26.19 58.49 25.8 58.38 25.44 58.21L22.89 63.81H30.34L27.79 58.21H27.8Z" fill="#F68C70"/>
<path d="M26.62 53.3499V31.6499" stroke="#F68C6F" stroke-width="1.5" stroke-linejoin="round"/>
<path d="M27.62 53.91V51.99H25.62V53.88C25.91 53.71 26.24 53.6 26.6 53.6C26.98 53.6 27.33 53.71 27.62 53.9V53.91Z" fill="#F68C70"/>
<path d="M27.6 54.51C27.31 54.33 26.98 54.22 26.61 54.22C26.27 54.22 25.95 54.32 25.67 54.49C25.13 54.81 24.77 55.39 24.77 56.07C24.77 57.09 25.59 57.91 26.61 57.91C27.63 57.91 28.45 57.09 28.45 56.07C28.45 55.42 28.11 54.85 27.59 54.52L27.6 54.51Z" fill="#13487F"/>
</svg>
