<?xml version="1.0" encoding="UTF-8" standalone="no"?>
<!DOCTYPE svg PUBLIC "-//W3C//DTD SVG 1.1//EN"
 "http://www.w3.org/Graphics/SVG/1.1/DTD/svg11.dtd">
<!-- Generated by graphviz version 13.1.2 (20250808.2320)
 -->
<!-- Title: microservice&#45;apigateway Pages: 1 -->
<svg width="759pt" height="300pt"
 viewBox="0.00 0.00 759.00 300.00" xmlns="http://www.w3.org/2000/svg" xmlns:xlink="http://www.w3.org/1999/xlink">
<g id="graph0" class="graph" transform="scale(1 1) rotate(0) translate(4 296.02)">
<title>microservice&#45;apigateway</title>
<polygon fill="white" stroke="none" points="-4,4 -4,-296.02 755.25,-296.02 755.25,4 -4,4"/>
<!-- microservice&#45;apigateway -->
<g id="node1" class="node">
<title>microservice&#45;apigateway</title>
<polygon fill="lightgrey" stroke="black" points="165.25,-158.42 0,-158.42 0,-122.42 165.25,-122.42 165.25,-158.42"/>
<text xml:space="preserve" text-anchor="middle" x="82.62" y="-135" font-family="Arial" font-size="14.00">microservice&#45;apigateway</text>
</g>
<!-- facet&#45;kaccess -->
<g id="node2" class="node">
<title>facet&#45;kaccess</title>
<polygon fill="none" stroke="black" points="463.5,-262.42 365,-262.42 365,-226.42 463.5,-226.42 463.5,-262.42"/>
<text xml:space="preserve" text-anchor="middle" x="414.25" y="-239" font-family="Arial" font-size="14.00">facet&#45;kaccess</text>
</g>
<!-- microservice&#45;apigateway&#45;&gt;facet&#45;kaccess -->
<g id="edge1" class="edge">
<title>microservice&#45;apigateway&#45;&gt;facet&#45;kaccess</title>
<path fill="none" stroke="black" d="M126.19,-158.83C148.35,-168.06 176,-179.02 201.25,-187.42 253.23,-204.73 313.67,-220.57 356.69,-231.13"/>
<polygon fill="black" stroke="black" points="355.93,-233.47 363.31,-232.75 357.09,-228.71 355.93,-233.47"/>
</g>
<!-- facet&#45;acl -->
<g id="node3" class="node">
<title>facet&#45;acl</title>
<polygon fill="none" stroke="black" points="447.75,-204.42 380.75,-204.42 380.75,-168.42 447.75,-168.42 447.75,-204.42"/>
<text xml:space="preserve" text-anchor="middle" x="414.25" y="-181" font-family="Arial" font-size="14.00">facet&#45;acl</text>
</g>
<!-- microservice&#45;apigateway&#45;&gt;facet&#45;acl -->
<g id="edge2" class="edge">
<title>microservice&#45;apigateway&#45;&gt;facet&#45;acl</title>
<path fill="none" stroke="black" d="M157.05,-158.89C171.63,-162.1 186.87,-165.14 201.25,-167.42 260.15,-176.78 329.04,-181.89 371.91,-184.39"/>
<polygon fill="black" stroke="black" points="371.75,-186.83 378.88,-184.78 372.03,-181.94 371.75,-186.83"/>
</g>
<!-- facet&#45;projekt -->
<g id="node4" class="node">
<title>facet&#45;projekt</title>
<polygon fill="none" stroke="black" points="294.88,-158.42 204.62,-158.42 204.62,-122.42 294.88,-122.42 294.88,-158.42"/>
<text xml:space="preserve" text-anchor="middle" x="249.75" y="-135" font-family="Arial" font-size="14.00">facet&#45;projekt</text>
</g>
<!-- microservice&#45;apigateway&#45;&gt;facet&#45;projekt -->
<g id="edge3" class="edge">
<title>microservice&#45;apigateway&#45;&gt;facet&#45;projekt</title>
<path fill="none" stroke="black" d="M165.7,-140.42C175.97,-140.42 186.25,-140.42 195.9,-140.42"/>
<polygon fill="black" stroke="black" points="195.69,-142.87 202.69,-140.42 195.69,-137.97 195.69,-142.87"/>
</g>
<!-- facet&#45;selfdata -->
<g id="node5" class="node">
<title>facet&#45;selfdata</title>
<polygon fill="none" stroke="black" points="298.25,-104.42 201.25,-104.42 201.25,-68.42 298.25,-68.42 298.25,-104.42"/>
<text xml:space="preserve" text-anchor="middle" x="249.75" y="-81" font-family="Arial" font-size="14.00">facet&#45;selfdata</text>
</g>
<!-- microservice&#45;apigateway&#45;&gt;facet&#45;selfdata -->
<g id="edge4" class="edge">
<title>microservice&#45;apigateway&#45;&gt;facet&#45;selfdata</title>
<path fill="none" stroke="black" d="M139.99,-121.99C157.17,-116.37 176.03,-110.2 193.15,-104.6"/>
<polygon fill="black" stroke="black" points="193.56,-107.05 199.45,-102.54 192.04,-102.39 193.56,-107.05"/>
</g>
<!-- facet&#45;crypto -->
<g id="node6" class="node">
<title>facet&#45;crypto</title>
<polygon fill="none" stroke="black" points="293,-39.42 206.5,-39.42 206.5,-3.42 293,-3.42 293,-39.42"/>
<text xml:space="preserve" text-anchor="middle" x="249.75" y="-16" font-family="Arial" font-size="14.00">facet&#45;crypto</text>
</g>
<!-- microservice&#45;apigateway&#45;&gt;facet&#45;crypto -->
<g id="edge5" class="edge">
<title>microservice&#45;apigateway&#45;&gt;facet&#45;crypto</title>
<path fill="none" stroke="black" d="M109.06,-122.09C137.91,-101.3 185.01,-67.36 216.44,-44.71"/>
<polygon fill="black" stroke="black" points="217.81,-46.74 222.05,-40.66 214.94,-42.76 217.81,-46.74"/>
</g>
<!-- facet&#45;core -->
<g id="node7" class="node">
<title>facet&#45;core</title>
<polygon fill="none" stroke="black" points="751.25,-166.42 675.25,-166.42 675.25,-130.42 751.25,-130.42 751.25,-166.42"/>
<text xml:space="preserve" text-anchor="middle" x="713.25" y="-143" font-family="Arial" font-size="14.00">facet&#45;core</text>
</g>
<!-- facet&#45;kaccess&#45;&gt;facet&#45;core -->
<g id="edge7" class="edge">
<title>facet&#45;kaccess&#45;&gt;facet&#45;core</title>
<path fill="none" stroke="black" d="M452.08,-262.81C498.83,-283.32 580.46,-309.44 639.25,-275.42 676.47,-253.88 696.37,-205.38 705.59,-174.94"/>
<polygon fill="black" stroke="black" points="707.92,-175.73 707.5,-168.33 703.21,-174.37 707.92,-175.73"/>
</g>
<!-- facet&#45;dataset -->
<g id="node8" class="node">
<title>facet&#45;dataset</title>
<polygon fill="none" stroke="black" points="631.75,-266.42 537.75,-266.42 537.75,-230.42 631.75,-230.42 631.75,-266.42"/>
<text xml:space="preserve" text-anchor="middle" x="584.75" y="-243" font-family="Arial" font-size="14.00">facet&#45;dataset</text>
</g>
<!-- facet&#45;kaccess&#45;&gt;facet&#45;dataset -->
<g id="edge8" class="edge">
<title>facet&#45;kaccess&#45;&gt;facet&#45;dataset</title>
<path fill="none" stroke="black" d="M463.99,-245.58C484.32,-246.06 508.03,-246.62 528.96,-247.12"/>
<polygon fill="black" stroke="black" points="528.87,-249.57 535.93,-247.29 528.99,-244.67 528.87,-249.57"/>
</g>
<!-- facet&#45;dataverse -->
<g id="node9" class="node">
<title>facet&#45;dataverse</title>
<polygon fill="none" stroke="black" points="639.25,-212.42 530.25,-212.42 530.25,-176.42 639.25,-176.42 639.25,-212.42"/>
<text xml:space="preserve" text-anchor="middle" x="584.75" y="-189" font-family="Arial" font-size="14.00">facet&#45;dataverse</text>
</g>
<!-- facet&#45;kaccess&#45;&gt;facet&#45;dataverse -->
<g id="edge9" class="edge">
<title>facet&#45;kaccess&#45;&gt;facet&#45;dataverse</title>
<path fill="none" stroke="black" d="M463.99,-229.96C482.02,-224.61 502.7,-218.47 521.75,-212.82"/>
<polygon fill="black" stroke="black" points="522.34,-215.2 528.35,-210.86 520.95,-210.5 522.34,-215.2"/>
</g>
<!-- facet&#45;acl&#45;&gt;facet&#45;core -->
<g id="edge12" class="edge">
<title>facet&#45;acl&#45;&gt;facet&#45;core</title>
<path fill="none" stroke="black" d="M447.89,-180.5C470.87,-176.45 502.37,-171.18 530.25,-167.42 576.64,-161.17 629.93,-155.82 666.8,-152.41"/>
<polygon fill="black" stroke="black" points="666.62,-154.88 673.37,-151.8 666.17,-150 666.62,-154.88"/>
</g>
<!-- facet&#45;oauth2 -->
<g id="node10" class="node">
<title>facet&#45;oauth2</title>
<polygon fill="none" stroke="black" points="630.25,-120.42 539.25,-120.42 539.25,-84.42 630.25,-84.42 630.25,-120.42"/>
<text xml:space="preserve" text-anchor="middle" x="584.75" y="-97" font-family="Arial" font-size="14.00">facet&#45;oauth2</text>
</g>
<!-- facet&#45;acl&#45;&gt;facet&#45;oauth2 -->
<g id="edge13" class="edge">
<title>facet&#45;acl&#45;&gt;facet&#45;oauth2</title>
<path fill="none" stroke="black" d="M447.99,-174.36C462.39,-168.75 479.37,-161.71 494.25,-154.42 504.45,-149.42 526.42,-136.67 546.03,-125.05"/>
<polygon fill="black" stroke="black" points="547.06,-127.29 551.83,-121.61 544.56,-123.07 547.06,-127.29"/>
</g>
<!-- facet&#45;projekt&#45;&gt;facet&#45;oauth2 -->
<g id="edge15" class="edge">
<title>facet&#45;projekt&#45;&gt;facet&#45;oauth2</title>
<path fill="none" stroke="black" d="M295.31,-135.34C356.33,-128.37 465.7,-115.89 530.81,-108.46"/>
<polygon fill="black" stroke="black" points="530.74,-110.94 537.41,-107.71 530.18,-106.07 530.74,-110.94"/>
</g>
<!-- facet&#45;selfdata&#45;&gt;facet&#45;oauth2 -->
<g id="edge16" class="edge">
<title>facet&#45;selfdata&#45;&gt;facet&#45;oauth2</title>
<path fill="none" stroke="black" d="M298.46,-88.71C359.9,-91.67 466.38,-96.78 530.43,-99.86"/>
<polygon fill="black" stroke="black" points="530.17,-102.3 537.28,-100.19 530.41,-97.41 530.17,-102.3"/>
</g>
<!-- facet&#45;strukture&#45;common -->
<g id="node11" class="node">
<title>facet&#45;strukture&#45;common</title>
<polygon fill="none" stroke="black" points="494.25,-74.42 334.25,-74.42 334.25,-38.42 494.25,-38.42 494.25,-74.42"/>
<text xml:space="preserve" text-anchor="middle" x="414.25" y="-51" font-family="Arial" font-size="14.00">facet&#45;strukture&#45;common</text>
</g>
<!-- facet&#45;selfdata&#45;&gt;facet&#45;strukture&#45;common -->
<g id="edge17" class="edge">
<title>facet&#45;selfdata&#45;&gt;facet&#45;strukture&#45;common</title>
<path fill="none" stroke="black" d="M298.63,-77.58C307.24,-75.99 316.47,-74.29 325.8,-72.57"/>
<polygon fill="black" stroke="black" points="326.09,-75 332.53,-71.32 325.2,-70.19 326.09,-75"/>
</g>
<!-- facet&#45;crypto&#45;&gt;facet&#45;core -->
<g id="edge6" class="edge">
<title>facet&#45;crypto&#45;&gt;facet&#45;core</title>
<path fill="none" stroke="black" d="M293.46,-12.57C369.09,0.71 529,17.8 639.25,-47.42 668.53,-64.74 689.38,-98.88 701.11,-122.65"/>
<polygon fill="black" stroke="black" points="698.87,-123.64 704.09,-128.91 703.29,-121.54 698.87,-123.64"/>
</g>
<!-- facet&#45;dataset&#45;&gt;facet&#45;core -->
<g id="edge10" class="edge">
<title>facet&#45;dataset&#45;&gt;facet&#45;core</title>
<path fill="none" stroke="black" d="M625.74,-230.03C630.43,-227.36 635.04,-224.47 639.25,-221.42 658.56,-207.45 677.51,-188.29 691.26,-173.11"/>
<polygon fill="black" stroke="black" points="692.99,-174.85 695.82,-168 689.33,-171.59 692.99,-174.85"/>
</g>
<!-- facet&#45;dataverse&#45;&gt;facet&#45;core -->
<g id="edge11" class="edge">
<title>facet&#45;dataverse&#45;&gt;facet&#45;core</title>
<path fill="none" stroke="black" d="M636.47,-175.98C646.56,-172.31 657.09,-168.48 666.98,-164.88"/>
<polygon fill="black" stroke="black" points="667.59,-167.27 673.34,-162.57 665.92,-162.66 667.59,-167.27"/>
</g>
<!-- facet&#45;oauth2&#45;&gt;facet&#45;core -->
<g id="edge14" class="edge">
<title>facet&#45;oauth2&#45;&gt;facet&#45;core</title>
<path fill="none" stroke="black" d="M630.71,-118.77C642.48,-123.05 655.17,-127.67 666.96,-131.95"/>
<polygon fill="black" stroke="black" points="666.12,-134.25 673.53,-134.34 667.79,-129.65 666.12,-134.25"/>
</g>
<!-- facet&#45;strukture&#45;common&#45;&gt;facet&#45;core -->
<g id="edge18" class="edge">
<title>facet&#45;strukture&#45;common&#45;&gt;facet&#45;core</title>
<path fill="none" stroke="black" d="M494.58,-50.12C539.04,-49.71 594.39,-54.57 639.25,-75.42 662.07,-86.02 681.81,-106.95 694.99,-123.68"/>
<polygon fill="black" stroke="black" points="692.77,-124.81 698.96,-128.89 696.66,-121.84 692.77,-124.81"/>
</g>
<!-- facet&#45;strukture&#45;common&#45;&gt;facet&#45;oauth2 -->
<g id="edge19" class="edge">
<title>facet&#45;strukture&#45;common&#45;&gt;facet&#45;oauth2</title>
<path fill="none" stroke="black" d="M482.81,-74.87C498.88,-79.25 515.78,-83.87 531.06,-88.04"/>
<polygon fill="black" stroke="black" points="530.04,-90.3 537.44,-89.78 531.33,-85.57 530.04,-90.3"/>
</g>
</g>
</svg>
