<?xml version="1.0" encoding="UTF-8" standalone="no"?>
<!DOCTYPE svg PUBLIC "-//W3C//DTD SVG 1.1//EN"
 "http://www.w3.org/Graphics/SVG/1.1/DTD/svg11.dtd">
<!-- Generated by graphviz version 13.1.2 (20250808.2320)
 -->
<!-- Title: microservice&#45;konsult Pages: 1 -->
<svg width="760pt" height="496pt"
 viewBox="0.00 0.00 760.00 496.00" xmlns="http://www.w3.org/2000/svg" xmlns:xlink="http://www.w3.org/1999/xlink">
<g id="graph0" class="graph" transform="scale(1 1) rotate(0) translate(4 492)">
<title>microservice&#45;konsult</title>
<polygon fill="white" stroke="none" points="-4,4 -4,-492 756,-492 756,4 -4,4"/>
<!-- microservice&#45;konsult -->
<g id="node1" class="node">
<title>microservice&#45;konsult</title>
<polygon fill="lightgrey" stroke="black" points="139.75,-305 0,-305 0,-269 139.75,-269 139.75,-305"/>
<text xml:space="preserve" text-anchor="middle" x="69.88" y="-281.57" font-family="Arial" font-size="14.00">microservice&#45;konsult</text>
</g>
<!-- facet&#45;kos -->
<g id="node2" class="node">
<title>facet&#45;kos</title>
<polygon fill="none" stroke="black" points="450.38,-396 379.62,-396 379.62,-360 450.38,-360 450.38,-396"/>
<text xml:space="preserve" text-anchor="middle" x="415" y="-372.57" font-family="Arial" font-size="14.00">facet&#45;kos</text>
</g>
<!-- microservice&#45;konsult&#45;&gt;facet&#45;kos -->
<g id="edge1" class="edge">
<title>microservice&#45;konsult&#45;&gt;facet&#45;kos</title>
<path fill="none" stroke="black" d="M100.05,-305.27C120.5,-317.24 148.88,-332.25 175.75,-341 241.83,-362.52 322.41,-371.69 370.89,-375.48"/>
<polygon fill="black" stroke="black" points="370.59,-377.91 377.76,-375.99 370.96,-373.02 370.59,-377.91"/>
</g>
<!-- facet&#45;acl -->
<g id="node3" class="node">
<title>facet&#45;acl</title>
<polygon fill="none" stroke="black" points="448.5,-488 381.5,-488 381.5,-452 448.5,-452 448.5,-488"/>
<text xml:space="preserve" text-anchor="middle" x="415" y="-464.57" font-family="Arial" font-size="14.00">facet&#45;acl</text>
</g>
<!-- microservice&#45;konsult&#45;&gt;facet&#45;acl -->
<g id="edge2" class="edge">
<title>microservice&#45;konsult&#45;&gt;facet&#45;acl</title>
<path fill="none" stroke="black" d="M76.65,-305.27C88.72,-340.11 120.21,-415.55 175.75,-449 236.61,-485.66 322.55,-482.69 372.85,-476.7"/>
<polygon fill="black" stroke="black" points="373.08,-479.14 379.71,-475.82 372.46,-474.28 373.08,-479.14"/>
</g>
<!-- facet&#45;projekt -->
<g id="node4" class="node">
<title>facet&#45;projekt</title>
<polygon fill="none" stroke="black" points="282.5,-440 192.25,-440 192.25,-404 282.5,-404 282.5,-440"/>
<text xml:space="preserve" text-anchor="middle" x="237.38" y="-416.57" font-family="Arial" font-size="14.00">facet&#45;projekt</text>
</g>
<!-- microservice&#45;konsult&#45;&gt;facet&#45;projekt -->
<g id="edge3" class="edge">
<title>microservice&#45;konsult&#45;&gt;facet&#45;projekt</title>
<path fill="none" stroke="black" d="M90.46,-305.27C111.14,-324.3 144.96,-354.68 175.75,-379 184.14,-385.63 193.45,-392.47 202.2,-398.69"/>
<polygon fill="black" stroke="black" points="200.71,-400.63 207.84,-402.66 203.53,-396.63 200.71,-400.63"/>
</g>
<!-- facet&#45;selfdata -->
<g id="node5" class="node">
<title>facet&#45;selfdata</title>
<polygon fill="none" stroke="black" points="285.88,-278 188.88,-278 188.88,-242 285.88,-242 285.88,-278"/>
<text xml:space="preserve" text-anchor="middle" x="237.38" y="-254.57" font-family="Arial" font-size="14.00">facet&#45;selfdata</text>
</g>
<!-- microservice&#45;konsult&#45;&gt;facet&#45;selfdata -->
<g id="edge4" class="edge">
<title>microservice&#45;konsult&#45;&gt;facet&#45;selfdata</title>
<path fill="none" stroke="black" d="M140.1,-275.71C153.47,-273.52 167.33,-271.26 180.22,-269.16"/>
<polygon fill="black" stroke="black" points="180.53,-271.59 187.04,-268.05 179.74,-266.76 180.53,-271.59"/>
</g>
<!-- facet&#45;organization -->
<g id="node6" class="node">
<title>facet&#45;organization</title>
<polygon fill="none" stroke="black" points="299,-221 175.75,-221 175.75,-185 299,-185 299,-221"/>
<text xml:space="preserve" text-anchor="middle" x="237.38" y="-197.57" font-family="Arial" font-size="14.00">facet&#45;organization</text>
</g>
<!-- microservice&#45;konsult&#45;&gt;facet&#45;organization -->
<g id="edge5" class="edge">
<title>microservice&#45;konsult&#45;&gt;facet&#45;organization</title>
<path fill="none" stroke="black" d="M106.24,-268.61C126.54,-258.1 152.53,-244.72 175.75,-233 180.75,-230.48 185.99,-227.85 191.21,-225.25"/>
<polygon fill="black" stroke="black" points="192.28,-227.45 197.46,-222.14 190.1,-223.07 192.28,-227.45"/>
</g>
<!-- facet&#45;rva -->
<g id="node7" class="node">
<title>facet&#45;rva</title>
<polygon fill="none" stroke="black" points="271.62,-332 203.12,-332 203.12,-296 271.62,-296 271.62,-332"/>
<text xml:space="preserve" text-anchor="middle" x="237.38" y="-308.57" font-family="Arial" font-size="14.00">facet&#45;rva</text>
</g>
<!-- microservice&#45;konsult&#45;&gt;facet&#45;rva -->
<g id="edge6" class="edge">
<title>microservice&#45;konsult&#45;&gt;facet&#45;rva</title>
<path fill="none" stroke="black" d="M140.1,-298.29C158.66,-301.32 178.15,-304.5 194.7,-307.2"/>
<polygon fill="black" stroke="black" points="194.27,-309.61 201.57,-308.32 195.06,-304.78 194.27,-309.61"/>
</g>
<!-- facet&#45;kaccess -->
<g id="node8" class="node">
<title>facet&#45;kaccess</title>
<polygon fill="none" stroke="black" points="464.25,-132 365.75,-132 365.75,-96 464.25,-96 464.25,-132"/>
<text xml:space="preserve" text-anchor="middle" x="415" y="-108.58" font-family="Arial" font-size="14.00">facet&#45;kaccess</text>
</g>
<!-- microservice&#45;konsult&#45;&gt;facet&#45;kaccess -->
<g id="edge7" class="edge">
<title>microservice&#45;konsult&#45;&gt;facet&#45;kaccess</title>
<path fill="none" stroke="black" d="M83.13,-268.64C100.69,-243.81 135.36,-199.89 175.75,-176 232.2,-142.61 306.58,-126.97 357.12,-119.8"/>
<polygon fill="black" stroke="black" points="357.22,-122.26 363.83,-118.88 356.56,-117.4 357.22,-122.26"/>
</g>
<!-- facet&#45;cms -->
<g id="node9" class="node">
<title>facet&#45;cms</title>
<polygon fill="none" stroke="black" points="623.12,-36 547.88,-36 547.88,0 623.12,0 623.12,-36"/>
<text xml:space="preserve" text-anchor="middle" x="585.5" y="-12.57" font-family="Arial" font-size="14.00">facet&#45;cms</text>
</g>
<!-- microservice&#45;konsult&#45;&gt;facet&#45;cms -->
<g id="edge8" class="edge">
<title>microservice&#45;konsult&#45;&gt;facet&#45;cms</title>
<path fill="none" stroke="black" d="M77.82,-268.6C91.37,-235.28 124.54,-164.97 175.75,-128 288.72,-46.45 458.55,-25.36 539.06,-19.9"/>
<polygon fill="black" stroke="black" points="539.16,-22.35 545.99,-19.46 538.84,-17.46 539.16,-22.35"/>
</g>
<!-- facet&#45;oauth2 -->
<g id="node13" class="node">
<title>facet&#45;oauth2</title>
<polygon fill="none" stroke="black" points="631,-331 540,-331 540,-295 631,-295 631,-331"/>
<text xml:space="preserve" text-anchor="middle" x="585.5" y="-307.57" font-family="Arial" font-size="14.00">facet&#45;oauth2</text>
</g>
<!-- facet&#45;kos&#45;&gt;facet&#45;oauth2 -->
<g id="edge15" class="edge">
<title>facet&#45;kos&#45;&gt;facet&#45;oauth2</title>
<path fill="none" stroke="black" d="M450.51,-364.69C473.99,-355.63 505.51,-343.47 532.08,-333.22"/>
<polygon fill="black" stroke="black" points="532.73,-335.6 538.38,-330.79 530.97,-331.03 532.73,-335.6"/>
</g>
<!-- facet&#45;core -->
<g id="node10" class="node">
<title>facet&#45;core</title>
<polygon fill="none" stroke="black" points="752,-205 676,-205 676,-169 752,-169 752,-205"/>
<text xml:space="preserve" text-anchor="middle" x="714" y="-181.57" font-family="Arial" font-size="14.00">facet&#45;core</text>
</g>
<!-- facet&#45;acl&#45;&gt;facet&#45;core -->
<g id="edge17" class="edge">
<title>facet&#45;acl&#45;&gt;facet&#45;core</title>
<path fill="none" stroke="black" d="M448.91,-458.59C496.89,-440.45 586.16,-400.73 640,-340 673.66,-302.03 695.09,-245.82 705.5,-213.15"/>
<polygon fill="black" stroke="black" points="707.73,-214.23 707.46,-206.82 703.04,-212.78 707.73,-214.23"/>
</g>
<!-- facet&#45;acl&#45;&gt;facet&#45;oauth2 -->
<g id="edge18" class="edge">
<title>facet&#45;acl&#45;&gt;facet&#45;oauth2</title>
<path fill="none" stroke="black" d="M448.94,-461.29C464.03,-456.19 481.51,-448.62 495,-438 513.32,-423.57 548.35,-370.58 568.72,-338.4"/>
<polygon fill="black" stroke="black" points="570.62,-340 572.28,-332.77 566.47,-337.38 570.62,-340"/>
</g>
<!-- facet&#45;projekt&#45;&gt;facet&#45;oauth2 -->
<g id="edge19" class="edge">
<title>facet&#45;projekt&#45;&gt;facet&#45;oauth2</title>
<path fill="none" stroke="black" d="M282.94,-428.36C336.07,-433.9 426.29,-436.73 495,-405 526.22,-390.58 552.32,-360.12 568.13,-338.2"/>
<polygon fill="black" stroke="black" points="570.01,-339.78 572.02,-332.65 566,-336.97 570.01,-339.78"/>
</g>
<!-- facet&#45;selfdata&#45;&gt;facet&#45;oauth2 -->
<g id="edge20" class="edge">
<title>facet&#45;selfdata&#45;&gt;facet&#45;oauth2</title>
<path fill="none" stroke="black" d="M286.04,-267.43C301.64,-269.85 319.06,-272.55 335,-275 402.89,-285.44 481.2,-297.34 531.7,-305"/>
<polygon fill="black" stroke="black" points="531.09,-307.39 538.38,-306.02 531.82,-302.54 531.09,-307.39"/>
</g>
<!-- facet&#45;strukture&#45;common -->
<g id="node14" class="node">
<title>facet&#45;strukture&#45;common</title>
<polygon fill="none" stroke="black" points="495,-266 335,-266 335,-230 495,-230 495,-266"/>
<text xml:space="preserve" text-anchor="middle" x="415" y="-242.57" font-family="Arial" font-size="14.00">facet&#45;strukture&#45;common</text>
</g>
<!-- facet&#45;selfdata&#45;&gt;facet&#45;strukture&#45;common -->
<g id="edge21" class="edge">
<title>facet&#45;selfdata&#45;&gt;facet&#45;strukture&#45;common</title>
<path fill="none" stroke="black" d="M286.37,-256.72C298.85,-255.87 312.69,-254.92 326.52,-253.98"/>
<polygon fill="black" stroke="black" points="326.32,-256.45 333.14,-253.53 325.99,-251.56 326.32,-256.45"/>
</g>
<!-- facet&#45;organization&#45;&gt;facet&#45;core -->
<g id="edge25" class="edge">
<title>facet&#45;organization&#45;&gt;facet&#45;core</title>
<path fill="none" stroke="black" d="M299.33,-193.54C311.14,-192.07 323.43,-190.77 335,-190 405.95,-185.25 423.9,-189.01 495,-190 511,-190.22 515,-190.78 531,-191 579.44,-191.67 591.57,-192.33 640,-191 648.75,-190.76 658.08,-190.36 667.05,-189.9"/>
<polygon fill="black" stroke="black" points="667.13,-192.35 673.99,-189.53 666.87,-187.46 667.13,-192.35"/>
</g>
<!-- facet&#45;organization&#45;&gt;facet&#45;oauth2 -->
<g id="edge26" class="edge">
<title>facet&#45;organization&#45;&gt;facet&#45;oauth2</title>
<path fill="none" stroke="black" d="M299.47,-195.42C353.46,-191.42 433.02,-192.23 495,-221 526.19,-235.48 552.29,-265.93 568.11,-287.83"/>
<polygon fill="black" stroke="black" points="565.98,-289.06 572.01,-293.38 569.99,-286.24 565.98,-289.06"/>
</g>
<!-- facet&#45;organization&#45;&gt;facet&#45;strukture&#45;common -->
<g id="edge24" class="edge">
<title>facet&#45;organization&#45;&gt;facet&#45;strukture&#45;common</title>
<path fill="none" stroke="black" d="M299.31,-218.61C310.5,-221.48 322.33,-224.51 333.98,-227.5"/>
<polygon fill="black" stroke="black" points="333.15,-229.81 340.54,-229.18 334.36,-225.07 333.15,-229.81"/>
</g>
<!-- facet&#45;rva&#45;&gt;facet&#45;oauth2 -->
<g id="edge27" class="edge">
<title>facet&#45;rva&#45;&gt;facet&#45;oauth2</title>
<path fill="none" stroke="black" d="M271.88,-313.9C332.16,-313.73 459.33,-313.36 531.52,-313.15"/>
<polygon fill="black" stroke="black" points="531.11,-315.6 538.1,-313.13 531.09,-310.7 531.11,-315.6"/>
</g>
<!-- facet&#45;rva&#45;&gt;facet&#45;strukture&#45;common -->
<g id="edge28" class="edge">
<title>facet&#45;rva&#45;&gt;facet&#45;strukture&#45;common</title>
<path fill="none" stroke="black" d="M271.82,-301.43C295.93,-292.37 329.05,-279.92 357.26,-269.32"/>
<polygon fill="black" stroke="black" points="357.96,-271.68 363.66,-266.92 356.24,-267.09 357.96,-271.68"/>
</g>
<!-- facet&#45;kaccess&#45;&gt;facet&#45;core -->
<g id="edge9" class="edge">
<title>facet&#45;kaccess&#45;&gt;facet&#45;core</title>
<path fill="none" stroke="black" d="M454.39,-95.6C500.97,-76.13 580.61,-52.13 640,-83 671.26,-99.25 691.93,-135.7 703.05,-160.83"/>
<polygon fill="black" stroke="black" points="700.75,-161.67 705.74,-167.15 705.26,-159.75 700.75,-161.67"/>
</g>
<!-- facet&#45;dataset -->
<g id="node11" class="node">
<title>facet&#45;dataset</title>
<polygon fill="none" stroke="black" points="632.5,-182 538.5,-182 538.5,-146 632.5,-146 632.5,-182"/>
<text xml:space="preserve" text-anchor="middle" x="585.5" y="-158.57" font-family="Arial" font-size="14.00">facet&#45;dataset</text>
</g>
<!-- facet&#45;kaccess&#45;&gt;facet&#45;dataset -->
<g id="edge10" class="edge">
<title>facet&#45;kaccess&#45;&gt;facet&#45;dataset</title>
<path fill="none" stroke="black" d="M464.74,-128.46C485.25,-134.55 509.2,-141.66 530.27,-147.91"/>
<polygon fill="black" stroke="black" points="529.33,-150.18 536.74,-149.83 530.72,-145.49 529.33,-150.18"/>
</g>
<!-- facet&#45;dataverse -->
<g id="node12" class="node">
<title>facet&#45;dataverse</title>
<polygon fill="none" stroke="black" points="640,-128 531,-128 531,-92 640,-92 640,-128"/>
<text xml:space="preserve" text-anchor="middle" x="585.5" y="-104.58" font-family="Arial" font-size="14.00">facet&#45;dataverse</text>
</g>
<!-- facet&#45;kaccess&#45;&gt;facet&#45;dataverse -->
<g id="edge11" class="edge">
<title>facet&#45;kaccess&#45;&gt;facet&#45;dataverse</title>
<path fill="none" stroke="black" d="M464.74,-112.84C482.69,-112.42 503.27,-111.93 522.25,-111.48"/>
<polygon fill="black" stroke="black" points="522.1,-113.93 529.04,-111.32 521.99,-109.03 522.1,-113.93"/>
</g>
<!-- facet&#45;cms&#45;&gt;facet&#45;core -->
<g id="edge14" class="edge">
<title>facet&#45;cms&#45;&gt;facet&#45;core</title>
<path fill="none" stroke="black" d="M623.31,-36.35C629.31,-40.33 635.15,-44.9 640,-50 671.08,-82.66 692.71,-131.13 703.97,-160.8"/>
<polygon fill="black" stroke="black" points="701.62,-161.51 706.35,-167.23 706.22,-159.81 701.62,-161.51"/>
</g>
<!-- facet&#45;dataset&#45;&gt;facet&#45;core -->
<g id="edge12" class="edge">
<title>facet&#45;dataset&#45;&gt;facet&#45;core</title>
<path fill="none" stroke="black" d="M632.89,-172.43C644.23,-174.5 656.36,-176.7 667.66,-178.76"/>
<polygon fill="black" stroke="black" points="666.9,-181.11 674.23,-179.95 667.78,-176.29 666.9,-181.11"/>
</g>
<!-- facet&#45;dataverse&#45;&gt;facet&#45;core -->
<g id="edge13" class="edge">
<title>facet&#45;dataverse&#45;&gt;facet&#45;core</title>
<path fill="none" stroke="black" d="M624.54,-128.41C629.8,-131.18 635.07,-134.09 640,-137 653.83,-145.18 668.55,-155.02 681.12,-163.81"/>
<polygon fill="black" stroke="black" points="679.5,-165.66 686.63,-167.69 682.32,-161.65 679.5,-165.66"/>
</g>
<!-- facet&#45;oauth2&#45;&gt;facet&#45;core -->
<g id="edge16" class="edge">
<title>facet&#45;oauth2&#45;&gt;facet&#45;core</title>
<path fill="none" stroke="black" d="M606.23,-294.52C616.41,-284.91 628.96,-272.92 640,-262 656.84,-245.34 675.46,-226.19 689.68,-211.42"/>
<polygon fill="black" stroke="black" points="691.36,-213.21 694.44,-206.46 687.82,-209.82 691.36,-213.21"/>
</g>
<!-- facet&#45;strukture&#45;common&#45;&gt;facet&#45;core -->
<g id="edge22" class="edge">
<title>facet&#45;strukture&#45;common&#45;&gt;facet&#45;core</title>
<path fill="none" stroke="black" d="M495.37,-246.47C538.84,-243.91 593.22,-237.85 640,-224 651.95,-220.46 664.29,-215 675.34,-209.35"/>
<polygon fill="black" stroke="black" points="676.38,-211.57 681.43,-206.14 674.1,-207.24 676.38,-211.57"/>
</g>
<!-- facet&#45;strukture&#45;common&#45;&gt;facet&#45;oauth2 -->
<g id="edge23" class="edge">
<title>facet&#45;strukture&#45;common&#45;&gt;facet&#45;oauth2</title>
<path fill="none" stroke="black" d="M463.83,-266.45C485.07,-274.64 510.12,-284.31 531.87,-292.7"/>
<polygon fill="black" stroke="black" points="530.9,-294.95 538.32,-295.18 532.67,-290.38 530.9,-294.95"/>
</g>
</g>
</svg>
