<svg width="18" height="18" viewBox="0 0 18 18" fill="none" xmlns="http://www.w3.org/2000/svg">
<path d="M7.82092 9.45971C8.37334 9.82882 9.0228 10.0258 9.68718 10.0258C10.5776 10.0243 11.4311 9.66988 12.0608 9.04025C12.6904 8.41062 13.0448 7.55711 13.0463 6.66668C13.0463 6.00229 12.8493 5.35283 12.4802 4.80042C12.1111 4.248 11.5865 3.81745 10.9727 3.5632C10.3589 3.30896 9.68345 3.24243 9.03184 3.37205C8.38022 3.50166 7.78167 3.82159 7.31189 4.29138C6.8421 4.76117 6.52217 5.35971 6.39255 6.01133C6.26294 6.66294 6.32946 7.33836 6.58371 7.95217C6.83796 8.56597 7.26851 9.0906 7.82092 9.45971ZM8.3126 4.60947C8.71948 4.33761 9.19783 4.1925 9.68718 4.1925C10.3429 4.19404 10.9713 4.4552 11.435 4.91887C11.8986 5.38254 12.1598 6.01096 12.1613 6.66668C12.1613 7.15602 12.0162 7.63437 11.7444 8.04124C11.4725 8.44812 11.0861 8.76524 10.634 8.9525C10.1819 9.13976 9.68443 9.18876 9.20449 9.09329C8.72455 8.99783 8.28369 8.76219 7.93768 8.41617C7.59166 8.07015 7.35602 7.6293 7.26055 7.14935C7.16508 6.66941 7.21408 6.17194 7.40134 5.71985C7.58861 5.26775 7.90573 4.88134 8.3126 4.60947Z" fill="white" stroke="white" stroke-width="0.01"/>
<path d="M3.995 14.2526L3.995 14.2527C3.99653 14.3695 4.04363 14.4812 4.12628 14.5638C4.20892 14.6465 4.32057 14.6936 4.43743 14.6951L4.43757 14.6951C4.55443 14.6936 4.66608 14.6465 4.74872 14.5638C4.83137 14.4812 4.87847 14.3695 4.88 14.2527L4.88 14.2526C4.88154 13.1328 5.32708 12.0592 6.11893 11.2674C6.91079 10.4755 7.98433 10.03 9.10417 10.0284H10.2708C10.3882 10.0284 10.5007 9.98182 10.5837 9.89883C10.6667 9.81585 10.7133 9.7033 10.7133 9.58594C10.7133 9.46858 10.6667 9.35603 10.5837 9.27304C10.5007 9.19006 10.3882 9.14344 10.2708 9.14344L9.10417 9.14344L9.10416 9.14344C7.75007 9.14652 6.45233 9.6858 5.49484 10.6433C4.53736 11.6008 3.99808 12.8985 3.995 14.2526Z" fill="white" stroke="white" stroke-width="0.01"/>
<rect width="18" height="18" rx="2" fill="#004680"/>
<path d="M8.68718 8.85834L8.68744 8.85833C9.61623 8.85672 10.5065 8.48705 11.1633 7.83028C11.8201 7.17352 12.1897 6.28323 12.1913 5.35443V5.35417C12.1913 4.66111 11.9858 3.98361 11.6008 3.40736C11.2157 2.8311 10.6685 2.38196 10.0282 2.11674C9.38786 1.85152 8.68329 1.78212 8.00355 1.91733C7.32381 2.05254 6.69942 2.38628 6.20936 2.87635C5.71929 3.36641 5.38555 3.9908 5.25034 4.67054C5.11513 5.35028 5.18453 6.05485 5.44975 6.69515C5.71497 7.33546 6.16411 7.88273 6.74037 8.26778C7.31662 8.65282 7.99412 8.85834 8.68718 8.85834ZM7.39316 3.41754C7.77615 3.16163 8.22641 3.02503 8.68703 3.025C9.30434 3.0265 9.89594 3.27239 10.3324 3.7089C10.769 4.14541 11.0148 4.73701 11.0163 5.35432C11.0163 5.81493 10.8797 6.2652 10.6238 6.64818C10.3679 7.03121 10.0041 7.32975 9.57851 7.50604C9.15291 7.68233 8.68459 7.72845 8.23278 7.63858C7.78096 7.54871 7.36595 7.32688 7.04021 7.00114C6.71447 6.6754 6.49264 6.26038 6.40276 5.80857C6.31289 5.35675 6.35902 4.88843 6.53531 4.46283C6.7116 4.03723 7.01013 3.67347 7.39316 3.41754Z" fill="white" stroke="white" stroke-width="0.3"/>
<path d="M3.43554 13.5276L3.43554 13.5276L3.43946 13.5276C3.59412 13.5256 3.74188 13.4632 3.85125 13.3539C3.96063 13.2445 4.02297 13.0967 4.02499 12.9421L4.025 12.9421L4.025 12.9403C4.02649 11.8589 4.45676 10.8221 5.22146 10.0574C5.98615 9.29271 7.02286 8.86245 8.10429 8.86094C8.10432 8.86094 8.10434 8.86094 8.10437 8.86094L9.27083 8.86094C9.42665 8.86094 9.57608 8.79904 9.68626 8.68886C9.79644 8.57868 9.85833 8.42925 9.85833 8.27344C9.85833 8.11762 9.79644 7.96819 9.68626 7.85801C9.57608 7.74783 9.42665 7.68594 9.27083 7.68594L8.10417 7.68594L8.10382 7.68594C6.7114 7.68911 5.37691 8.24365 4.39231 9.22825C3.40772 10.2128 2.85317 11.5473 2.84998 12.9398L2.85001 12.9421C2.85203 13.0967 2.91437 13.2445 3.02375 13.3539C3.13312 13.4632 3.28088 13.5256 3.43554 13.5276Z" fill="white" stroke="white" stroke-width="0.3"/>
<path d="M14 10.9984C14 10.1148 13.1046 9.39844 12 9.39844C10.8954 9.39844 10 10.1148 10 10.9984" stroke="white"/>
<mask id="path-7-inside-1_2721_60999" fill="white">
<rect x="7.5" y="11" width="9" height="5.6" rx="0.5"/>
</mask>
<rect x="7.5" y="11" width="9" height="5.6" rx="0.5" stroke="white" stroke-width="2" mask="url(#path-7-inside-1_2721_60999)"/>
<path d="M9.5 12.9969H14.5" stroke="white" stroke-width="0.5" stroke-linecap="round" stroke-linejoin="round"/>
<path d="M11 14.2031H13.5" stroke="white" stroke-width="0.5" stroke-linecap="round" stroke-linejoin="round"/>
</svg>
