<?xml version="1.0" encoding="UTF-8" standalone="no"?>
<!DOCTYPE svg PUBLIC "-//W3C//DTD SVG 1.1//EN"
 "http://www.w3.org/Graphics/SVG/1.1/DTD/svg11.dtd">
<!-- Generated by graphviz version 13.1.2 (20250808.2320)
 -->
<!-- Title: microservice&#45;acl Pages: 1 -->
<svg width="548pt" height="113pt"
 viewBox="0.00 0.00 548.00 113.00" xmlns="http://www.w3.org/2000/svg" xmlns:xlink="http://www.w3.org/1999/xlink">
<g id="graph0" class="graph" transform="scale(1 1) rotate(0) translate(4 108.75)">
<title>microservice&#45;acl</title>
<polygon fill="white" stroke="none" points="-4,4 -4,-108.75 543.5,-108.75 543.5,4 -4,4"/>
<!-- microservice&#45;acl -->
<g id="node1" class="node">
<title>microservice&#45;acl</title>
<polygon fill="lightgrey" stroke="black" points="114.25,-63 0,-63 0,-27 114.25,-27 114.25,-63"/>
<text xml:space="preserve" text-anchor="middle" x="57.12" y="-39.58" font-family="Arial" font-size="14.00">microservice&#45;acl</text>
</g>
<!-- facet&#45;generator&#45;text -->
<g id="node2" class="node">
<title>facet&#45;generator&#45;text</title>
<polygon fill="none" stroke="black" points="284,-90 150.25,-90 150.25,-54 284,-54 284,-90"/>
<text xml:space="preserve" text-anchor="middle" x="217.12" y="-66.58" font-family="Arial" font-size="14.00">facet&#45;generator&#45;text</text>
</g>
<!-- microservice&#45;acl&#45;&gt;facet&#45;generator&#45;text -->
<g id="edge1" class="edge">
<title>microservice&#45;acl&#45;&gt;facet&#45;generator&#45;text</title>
<path fill="none" stroke="black" d="M114.72,-54.67C123.47,-56.17 132.61,-57.73 141.68,-59.28"/>
<polygon fill="black" stroke="black" points="141.16,-61.67 148.47,-60.44 141.98,-56.84 141.16,-61.67"/>
</g>
<!-- facet&#45;email -->
<g id="node3" class="node">
<title>facet&#45;email</title>
<polygon fill="none" stroke="black" points="415.12,-36 332.38,-36 332.38,0 415.12,0 415.12,-36"/>
<text xml:space="preserve" text-anchor="middle" x="373.75" y="-12.57" font-family="Arial" font-size="14.00">facet&#45;email</text>
</g>
<!-- microservice&#45;acl&#45;&gt;facet&#45;email -->
<g id="edge2" class="edge">
<title>microservice&#45;acl&#45;&gt;facet&#45;email</title>
<path fill="none" stroke="black" d="M114.74,-40.14C174.31,-35.03 267.12,-27.07 323.68,-22.21"/>
<polygon fill="black" stroke="black" points="323.82,-24.66 330.59,-21.62 323.4,-19.78 323.82,-24.66"/>
</g>
<!-- facet&#45;core -->
<g id="node4" class="node">
<title>facet&#45;core</title>
<polygon fill="none" stroke="black" points="539.5,-90 463.5,-90 463.5,-54 539.5,-54 539.5,-90"/>
<text xml:space="preserve" text-anchor="middle" x="501.5" y="-66.58" font-family="Arial" font-size="14.00">facet&#45;core</text>
</g>
<!-- facet&#45;generator&#45;text&#45;&gt;facet&#45;core -->
<g id="edge3" class="edge">
<title>facet&#45;generator&#45;text&#45;&gt;facet&#45;core</title>
<path fill="none" stroke="black" d="M277.4,-90.47C291.25,-94.01 306.03,-97.18 320,-99 367.38,-105.17 380.47,-107.42 427.5,-99 436.76,-97.34 446.38,-94.59 455.48,-91.46"/>
<polygon fill="black" stroke="black" points="456.15,-93.83 461.9,-89.15 454.48,-89.22 456.15,-93.83"/>
</g>
<!-- facet&#45;generator -->
<g id="node5" class="node">
<title>facet&#45;generator</title>
<polygon fill="none" stroke="black" points="427.5,-90 320,-90 320,-54 427.5,-54 427.5,-90"/>
<text xml:space="preserve" text-anchor="middle" x="373.75" y="-66.58" font-family="Arial" font-size="14.00">facet&#45;generator</text>
</g>
<!-- facet&#45;generator&#45;text&#45;&gt;facet&#45;generator -->
<g id="edge4" class="edge">
<title>facet&#45;generator&#45;text&#45;&gt;facet&#45;generator</title>
<path fill="none" stroke="black" d="M284.15,-72C293.11,-72 302.27,-72 311.15,-72"/>
<polygon fill="black" stroke="black" points="311.04,-74.45 318.04,-72 311.04,-69.55 311.04,-74.45"/>
</g>
<!-- facet&#45;email&#45;&gt;facet&#45;core -->
<g id="edge6" class="edge">
<title>facet&#45;email&#45;&gt;facet&#45;core</title>
<path fill="none" stroke="black" d="M415.58,-35.53C428.41,-41.04 442.64,-47.15 455.73,-52.77"/>
<polygon fill="black" stroke="black" points="454.49,-54.91 461.89,-55.42 456.42,-50.41 454.49,-54.91"/>
</g>
<!-- facet&#45;generator&#45;&gt;facet&#45;core -->
<g id="edge5" class="edge">
<title>facet&#45;generator&#45;&gt;facet&#45;core</title>
<path fill="none" stroke="black" d="M427.71,-72C436.77,-72 446.1,-72 454.94,-72"/>
<polygon fill="black" stroke="black" points="454.73,-74.45 461.73,-72 454.73,-69.55 454.73,-74.45"/>
</g>
</g>
</svg>
