<?xml version="1.0" encoding="UTF-8" standalone="no"?>
<!DOCTYPE svg PUBLIC "-//W3C//DTD SVG 1.1//EN"
 "http://www.w3.org/Graphics/SVG/1.1/DTD/svg11.dtd">
<!-- Generated by graphviz version 13.1.2 (20250808.2320)
 -->
<!-- Title: microservice&#45;kalim Pages: 1 -->
<svg width="750pt" height="638pt"
 viewBox="0.00 0.00 750.00 638.00" xmlns="http://www.w3.org/2000/svg" xmlns:xlink="http://www.w3.org/1999/xlink">
<g id="graph0" class="graph" transform="scale(1 1) rotate(0) translate(4 634)">
<title>microservice&#45;kalim</title>
<polygon fill="white" stroke="none" points="-4,4 -4,-634 745.5,-634 745.5,4 -4,4"/>
<!-- microservice&#45;kalim -->
<g id="node1" class="node">
<title>microservice&#45;kalim</title>
<polygon fill="lightgrey" stroke="black" points="129.25,-402 0,-402 0,-366 129.25,-366 129.25,-402"/>
<text xml:space="preserve" text-anchor="middle" x="64.62" y="-378.57" font-family="Arial" font-size="14.00">microservice&#45;kalim</text>
</g>
<!-- facet&#45;providers -->
<g id="node2" class="node">
<title>facet&#45;providers</title>
<polygon fill="none" stroke="black" points="279.5,-402 174.25,-402 174.25,-366 279.5,-366 279.5,-402"/>
<text xml:space="preserve" text-anchor="middle" x="226.88" y="-378.57" font-family="Arial" font-size="14.00">facet&#45;providers</text>
</g>
<!-- microservice&#45;kalim&#45;&gt;facet&#45;providers -->
<g id="edge1" class="edge">
<title>microservice&#45;kalim&#45;&gt;facet&#45;providers</title>
<path fill="none" stroke="black" d="M129.42,-384C141.29,-384 153.66,-384 165.42,-384"/>
<polygon fill="black" stroke="black" points="165.36,-386.45 172.36,-384 165.36,-381.55 165.36,-386.45"/>
</g>
<!-- facet&#45;kos -->
<g id="node3" class="node">
<title>facet&#45;kos</title>
<polygon fill="none" stroke="black" points="262.25,-581 191.5,-581 191.5,-545 262.25,-545 262.25,-581"/>
<text xml:space="preserve" text-anchor="middle" x="226.88" y="-557.58" font-family="Arial" font-size="14.00">facet&#45;kos</text>
</g>
<!-- microservice&#45;kalim&#45;&gt;facet&#45;kos -->
<g id="edge2" class="edge">
<title>microservice&#45;kalim&#45;&gt;facet&#45;kos</title>
<path fill="none" stroke="black" d="M73.82,-402.46C88.3,-433.29 121.12,-495.66 165.25,-534 170.81,-538.83 177.32,-543.05 183.97,-546.65"/>
<polygon fill="black" stroke="black" points="182.5,-548.65 189.85,-549.64 184.72,-544.28 182.5,-548.65"/>
</g>
<!-- facet&#45;acl -->
<g id="node4" class="node">
<title>facet&#45;acl</title>
<polygon fill="none" stroke="black" points="438,-630 371,-630 371,-594 438,-594 438,-630"/>
<text xml:space="preserve" text-anchor="middle" x="404.5" y="-606.58" font-family="Arial" font-size="14.00">facet&#45;acl</text>
</g>
<!-- microservice&#45;kalim&#45;&gt;facet&#45;acl -->
<g id="edge3" class="edge">
<title>microservice&#45;kalim&#45;&gt;facet&#45;acl</title>
<path fill="none" stroke="black" d="M68.41,-402.45C75.76,-443.96 99.79,-544.62 165.25,-590 224.1,-630.8 311.74,-626.63 362.7,-619.55"/>
<polygon fill="black" stroke="black" points="362.8,-622.01 369.36,-618.57 362.08,-617.16 362.8,-622.01"/>
</g>
<!-- facet&#45;apigateway -->
<g id="node5" class="node">
<title>facet&#45;apigateway</title>
<polygon fill="none" stroke="black" points="285.88,-525 167.88,-525 167.88,-489 285.88,-489 285.88,-525"/>
<text xml:space="preserve" text-anchor="middle" x="226.88" y="-501.57" font-family="Arial" font-size="14.00">facet&#45;apigateway</text>
</g>
<!-- microservice&#45;kalim&#45;&gt;facet&#45;apigateway -->
<g id="edge4" class="edge">
<title>microservice&#45;kalim&#45;&gt;facet&#45;apigateway</title>
<path fill="none" stroke="black" d="M82.8,-402.25C101.78,-421.77 133.83,-452.9 165.25,-475 170,-478.34 175.15,-481.57 180.36,-484.61"/>
<polygon fill="black" stroke="black" points="178.86,-486.58 186.16,-487.89 181.27,-482.32 178.86,-486.58"/>
</g>
<!-- facet&#45;email -->
<g id="node6" class="node">
<title>facet&#45;email</title>
<polygon fill="none" stroke="black" points="445.88,-256 363.12,-256 363.12,-220 445.88,-220 445.88,-256"/>
<text xml:space="preserve" text-anchor="middle" x="404.5" y="-232.57" font-family="Arial" font-size="14.00">facet&#45;email</text>
</g>
<!-- microservice&#45;kalim&#45;&gt;facet&#45;email -->
<g id="edge5" class="edge">
<title>microservice&#45;kalim&#45;&gt;facet&#45;email</title>
<path fill="none" stroke="black" d="M83.41,-365.59C102.15,-347.21 133.33,-319.4 165.25,-303 226.54,-271.52 304.77,-253.95 354.51,-245.23"/>
<polygon fill="black" stroke="black" points="354.87,-247.65 361.36,-244.06 354.05,-242.82 354.87,-247.65"/>
</g>
<!-- facet&#45;generator&#45;text -->
<g id="node7" class="node">
<title>facet&#45;generator&#45;text</title>
<polygon fill="none" stroke="black" points="471.38,-202 337.62,-202 337.62,-166 471.38,-166 471.38,-202"/>
<text xml:space="preserve" text-anchor="middle" x="404.5" y="-178.57" font-family="Arial" font-size="14.00">facet&#45;generator&#45;text</text>
</g>
<!-- microservice&#45;kalim&#45;&gt;facet&#45;generator&#45;text -->
<g id="edge6" class="edge">
<title>microservice&#45;kalim&#45;&gt;facet&#45;generator&#45;text</title>
<path fill="none" stroke="black" d="M74.94,-365.82C90.11,-338.04 122.76,-285.16 165.25,-256 214.27,-222.36 279.42,-204.08 329.2,-194.37"/>
<polygon fill="black" stroke="black" points="329.46,-196.82 335.88,-193.11 328.55,-192 329.46,-196.82"/>
</g>
<!-- facet&#45;projekt -->
<g id="node8" class="node">
<title>facet&#45;projekt</title>
<polygon fill="none" stroke="black" points="272,-466 181.75,-466 181.75,-430 272,-430 272,-466"/>
<text xml:space="preserve" text-anchor="middle" x="226.88" y="-442.57" font-family="Arial" font-size="14.00">facet&#45;projekt</text>
</g>
<!-- microservice&#45;kalim&#45;&gt;facet&#45;projekt -->
<g id="edge7" class="edge">
<title>microservice&#45;kalim&#45;&gt;facet&#45;projekt</title>
<path fill="none" stroke="black" d="M111.55,-402.34C130.9,-410.07 153.52,-419.1 173.52,-427.09"/>
<polygon fill="black" stroke="black" points="172.51,-429.33 179.92,-429.65 174.33,-424.78 172.51,-429.33"/>
</g>
<!-- facet&#45;kaccess -->
<g id="node9" class="node">
<title>facet&#45;kaccess</title>
<polygon fill="none" stroke="black" points="453.75,-113 355.25,-113 355.25,-77 453.75,-77 453.75,-113"/>
<text xml:space="preserve" text-anchor="middle" x="404.5" y="-89.58" font-family="Arial" font-size="14.00">facet&#45;kaccess</text>
</g>
<!-- microservice&#45;kalim&#45;&gt;facet&#45;kaccess -->
<g id="edge8" class="edge">
<title>microservice&#45;kalim&#45;&gt;facet&#45;kaccess</title>
<path fill="none" stroke="black" d="M71.16,-365.65C82.9,-329.57 113.55,-248.72 165.25,-201 217.19,-153.05 294.41,-124.16 346.74,-108.92"/>
<polygon fill="black" stroke="black" points="347.4,-111.27 353.46,-107 346.06,-106.56 347.4,-111.27"/>
</g>
<!-- facet&#45;organization -->
<g id="node10" class="node">
<title>facet&#45;organization</title>
<polygon fill="none" stroke="black" points="288.5,-348 165.25,-348 165.25,-312 288.5,-312 288.5,-348"/>
<text xml:space="preserve" text-anchor="middle" x="226.88" y="-324.57" font-family="Arial" font-size="14.00">facet&#45;organization</text>
</g>
<!-- microservice&#45;kalim&#45;&gt;facet&#45;organization -->
<g id="edge9" class="edge">
<title>microservice&#45;kalim&#45;&gt;facet&#45;organization</title>
<path fill="none" stroke="black" d="M120.33,-365.57C134.17,-360.9 149.15,-355.85 163.35,-351.07"/>
<polygon fill="black" stroke="black" points="163.86,-353.48 169.71,-348.92 162.3,-348.84 163.86,-353.48"/>
</g>
<!-- facet&#45;core -->
<g id="node11" class="node">
<title>facet&#45;core</title>
<polygon fill="none" stroke="black" points="741.5,-266 665.5,-266 665.5,-230 741.5,-230 741.5,-266"/>
<text xml:space="preserve" text-anchor="middle" x="703.5" y="-242.57" font-family="Arial" font-size="14.00">facet&#45;core</text>
</g>
<!-- facet&#45;providers&#45;&gt;facet&#45;core -->
<g id="edge19" class="edge">
<title>facet&#45;providers&#45;&gt;facet&#45;core</title>
<path fill="none" stroke="black" d="M279.85,-388.21C360.28,-392.29 517.3,-390.41 629.5,-327 652.61,-313.94 672.56,-291.03 685.74,-273.23"/>
<polygon fill="black" stroke="black" points="687.63,-274.79 689.73,-267.68 683.65,-271.93 687.63,-274.79"/>
</g>
<!-- facet&#45;strukture&#45;common -->
<g id="node14" class="node">
<title>facet&#45;strukture&#45;common</title>
<polygon fill="none" stroke="black" points="484.5,-348 324.5,-348 324.5,-312 484.5,-312 484.5,-348"/>
<text xml:space="preserve" text-anchor="middle" x="404.5" y="-324.57" font-family="Arial" font-size="14.00">facet&#45;strukture&#45;common</text>
</g>
<!-- facet&#45;providers&#45;&gt;facet&#45;strukture&#45;common -->
<g id="edge18" class="edge">
<title>facet&#45;providers&#45;&gt;facet&#45;strukture&#45;common</title>
<path fill="none" stroke="black" d="M279.62,-368.09C297.15,-362.7 317,-356.6 335.59,-350.88"/>
<polygon fill="black" stroke="black" points="336.06,-353.3 342.03,-348.9 334.62,-348.62 336.06,-353.3"/>
</g>
<!-- facet&#45;oauth2 -->
<g id="node15" class="node">
<title>facet&#45;oauth2</title>
<polygon fill="none" stroke="black" points="620.5,-489 529.5,-489 529.5,-453 620.5,-453 620.5,-489"/>
<text xml:space="preserve" text-anchor="middle" x="575" y="-465.57" font-family="Arial" font-size="14.00">facet&#45;oauth2</text>
</g>
<!-- facet&#45;providers&#45;&gt;facet&#45;oauth2 -->
<g id="edge20" class="edge">
<title>facet&#45;providers&#45;&gt;facet&#45;oauth2</title>
<path fill="none" stroke="black" d="M262.37,-402.32C280.43,-411.24 303.19,-421.43 324.5,-428 390.55,-448.36 469.59,-459.93 520.75,-465.83"/>
<polygon fill="black" stroke="black" points="520.29,-468.24 527.52,-466.59 520.84,-463.37 520.29,-468.24"/>
</g>
<!-- facet&#45;kos&#45;&gt;facet&#45;oauth2 -->
<g id="edge24" class="edge">
<title>facet&#45;kos&#45;&gt;facet&#45;oauth2</title>
<path fill="none" stroke="black" d="M262.73,-556.74C312.47,-547.44 406.43,-528.52 484.5,-505 496.64,-501.34 509.49,-496.84 521.56,-492.33"/>
<polygon fill="black" stroke="black" points="522.26,-494.69 527.94,-489.91 520.53,-490.1 522.26,-494.69"/>
</g>
<!-- facet&#45;acl&#45;&gt;facet&#45;core -->
<g id="edge25" class="edge">
<title>facet&#45;acl&#45;&gt;facet&#45;core</title>
<path fill="none" stroke="black" d="M438.13,-604.26C486.98,-590.97 578.82,-559.15 629.5,-498 684.89,-431.17 698.26,-323.98 701.48,-274.55"/>
<polygon fill="black" stroke="black" points="703.91,-274.93 701.87,-267.8 699.02,-274.65 703.91,-274.93"/>
</g>
<!-- facet&#45;acl&#45;&gt;facet&#45;oauth2 -->
<g id="edge26" class="edge">
<title>facet&#45;acl&#45;&gt;facet&#45;oauth2</title>
<path fill="none" stroke="black" d="M438.13,-602.88C453.15,-597.69 470.67,-590.17 484.5,-580 493.03,-573.73 530.87,-526.2 554.53,-496.01"/>
<polygon fill="black" stroke="black" points="556.32,-497.69 558.71,-490.67 552.47,-494.67 556.32,-497.69"/>
</g>
<!-- facet&#45;apigateway&#45;&gt;facet&#45;oauth2 -->
<g id="edge27" class="edge">
<title>facet&#45;apigateway&#45;&gt;facet&#45;oauth2</title>
<path fill="none" stroke="black" d="M286.29,-502.21C338.35,-497.78 416.59,-490.73 484.5,-483 496.4,-481.65 509.16,-480.03 521.22,-478.43"/>
<polygon fill="black" stroke="black" points="521.32,-480.89 527.93,-477.53 520.67,-476.04 521.32,-480.89"/>
</g>
<!-- facet&#45;email&#45;&gt;facet&#45;core -->
<g id="edge28" class="edge">
<title>facet&#45;email&#45;&gt;facet&#45;core</title>
<path fill="none" stroke="black" d="M446.17,-239.37C501.29,-241.23 599.41,-244.53 656.94,-246.47"/>
<polygon fill="black" stroke="black" points="656.53,-248.9 663.61,-246.69 656.7,-244.01 656.53,-248.9"/>
</g>
<!-- facet&#45;generator&#45;text&#45;&gt;facet&#45;core -->
<g id="edge29" class="edge">
<title>facet&#45;generator&#45;text&#45;&gt;facet&#45;core</title>
<path fill="none" stroke="black" d="M471.78,-198.28C528.19,-210.44 607.7,-227.57 657.11,-238.22"/>
<polygon fill="black" stroke="black" points="656.54,-240.6 663.9,-239.68 657.57,-235.81 656.54,-240.6"/>
</g>
<!-- facet&#45;generator -->
<g id="node16" class="node">
<title>facet&#45;generator</title>
<polygon fill="none" stroke="black" points="628.75,-182 521.25,-182 521.25,-146 628.75,-146 628.75,-182"/>
<text xml:space="preserve" text-anchor="middle" x="575" y="-158.57" font-family="Arial" font-size="14.00">facet&#45;generator</text>
</g>
<!-- facet&#45;generator&#45;text&#45;&gt;facet&#45;generator -->
<g id="edge30" class="edge">
<title>facet&#45;generator&#45;text&#45;&gt;facet&#45;generator</title>
<path fill="none" stroke="black" d="M471.61,-176.15C485.13,-174.55 499.29,-172.87 512.63,-171.28"/>
<polygon fill="black" stroke="black" points="512.65,-173.75 519.32,-170.49 512.08,-168.88 512.65,-173.75"/>
</g>
<!-- facet&#45;projekt&#45;&gt;facet&#45;oauth2 -->
<g id="edge32" class="edge">
<title>facet&#45;projekt&#45;&gt;facet&#45;oauth2</title>
<path fill="none" stroke="black" d="M272.39,-457.87C288.7,-461.07 307.36,-464.24 324.5,-466 391.93,-472.91 470.12,-473.24 520.74,-472.45"/>
<polygon fill="black" stroke="black" points="520.78,-474.9 527.73,-472.33 520.69,-470 520.78,-474.9"/>
</g>
<!-- facet&#45;kaccess&#45;&gt;facet&#45;core -->
<g id="edge10" class="edge">
<title>facet&#45;kaccess&#45;&gt;facet&#45;core</title>
<path fill="none" stroke="black" d="M454.12,-99.64C511.12,-105.85 601.38,-118.28 629.5,-137 660.47,-157.61 681.4,-196.32 692.64,-222.14"/>
<polygon fill="black" stroke="black" points="690.26,-222.8 695.23,-228.31 694.78,-220.9 690.26,-222.8"/>
</g>
<!-- facet&#45;dataset -->
<g id="node12" class="node">
<title>facet&#45;dataset</title>
<polygon fill="none" stroke="black" points="622,-90 528,-90 528,-54 622,-54 622,-90"/>
<text xml:space="preserve" text-anchor="middle" x="575" y="-66.58" font-family="Arial" font-size="14.00">facet&#45;dataset</text>
</g>
<!-- facet&#45;kaccess&#45;&gt;facet&#45;dataset -->
<g id="edge11" class="edge">
<title>facet&#45;kaccess&#45;&gt;facet&#45;dataset</title>
<path fill="none" stroke="black" d="M454.24,-88.35C474.66,-85.56 498.49,-82.31 519.49,-79.44"/>
<polygon fill="black" stroke="black" points="519.58,-81.9 526.19,-78.53 518.92,-77.05 519.58,-81.9"/>
</g>
<!-- facet&#45;dataverse -->
<g id="node13" class="node">
<title>facet&#45;dataverse</title>
<polygon fill="none" stroke="black" points="629.5,-36 520.5,-36 520.5,0 629.5,0 629.5,-36"/>
<text xml:space="preserve" text-anchor="middle" x="575" y="-12.57" font-family="Arial" font-size="14.00">facet&#45;dataverse</text>
</g>
<!-- facet&#45;kaccess&#45;&gt;facet&#45;dataverse -->
<g id="edge12" class="edge">
<title>facet&#45;kaccess&#45;&gt;facet&#45;dataverse</title>
<path fill="none" stroke="black" d="M445.86,-76.56C469.95,-65.55 500.68,-51.51 526,-39.93"/>
<polygon fill="black" stroke="black" points="526.95,-42.19 532.3,-37.06 524.92,-37.74 526.95,-42.19"/>
</g>
<!-- facet&#45;organization&#45;&gt;facet&#45;core -->
<g id="edge16" class="edge">
<title>facet&#45;organization&#45;&gt;facet&#45;core</title>
<path fill="none" stroke="black" d="M288.92,-311.67C300.66,-308.51 312.91,-305.45 324.5,-303 356.47,-296.24 563.28,-267.29 656.75,-254.32"/>
<polygon fill="black" stroke="black" points="657.07,-256.75 663.67,-253.36 656.4,-251.9 657.07,-256.75"/>
</g>
<!-- facet&#45;organization&#45;&gt;facet&#45;strukture&#45;common -->
<g id="edge15" class="edge">
<title>facet&#45;organization&#45;&gt;facet&#45;strukture&#45;common</title>
<path fill="none" stroke="black" d="M288.81,-330C297.53,-330 306.64,-330 315.76,-330"/>
<polygon fill="black" stroke="black" points="315.6,-332.45 322.6,-330 315.6,-327.55 315.6,-332.45"/>
</g>
<!-- facet&#45;organization&#45;&gt;facet&#45;oauth2 -->
<g id="edge17" class="edge">
<title>facet&#45;organization&#45;&gt;facet&#45;oauth2</title>
<path fill="none" stroke="black" d="M279.99,-348.46C332.2,-367.29 414.63,-397.93 484.5,-428 499.47,-434.44 515.58,-441.99 529.96,-448.94"/>
<polygon fill="black" stroke="black" points="528.58,-451 535.94,-451.86 530.72,-446.59 528.58,-451"/>
</g>
<!-- facet&#45;dataset&#45;&gt;facet&#45;core -->
<g id="edge13" class="edge">
<title>facet&#45;dataset&#45;&gt;facet&#45;core</title>
<path fill="none" stroke="black" d="M613.17,-90.45C619.07,-94.4 624.78,-98.93 629.5,-104 661.96,-138.81 683.48,-190.81 694.29,-221.87"/>
<polygon fill="black" stroke="black" points="691.88,-222.39 696.44,-228.23 696.52,-220.82 691.88,-222.39"/>
</g>
<!-- facet&#45;dataverse&#45;&gt;facet&#45;core -->
<g id="edge14" class="edge">
<title>facet&#45;dataverse&#45;&gt;facet&#45;core</title>
<path fill="none" stroke="black" d="M619.84,-36.38C623.38,-38.94 626.67,-41.81 629.5,-45 675.26,-96.72 692.97,-179.25 699.3,-221.37"/>
<polygon fill="black" stroke="black" points="696.86,-221.64 700.27,-228.22 701.72,-220.95 696.86,-221.64"/>
</g>
<!-- facet&#45;strukture&#45;common&#45;&gt;facet&#45;core -->
<g id="edge21" class="edge">
<title>facet&#45;strukture&#45;common&#45;&gt;facet&#45;core</title>
<path fill="none" stroke="black" d="M484.81,-328.68C528.75,-325.68 583.61,-318.12 629.5,-300 646.26,-293.38 662.8,-282.11 675.88,-271.75"/>
<polygon fill="black" stroke="black" points="677.34,-273.72 681.22,-267.4 674.24,-269.92 677.34,-273.72"/>
</g>
<!-- facet&#45;strukture&#45;common&#45;&gt;facet&#45;oauth2 -->
<g id="edge22" class="edge">
<title>facet&#45;strukture&#45;common&#45;&gt;facet&#45;oauth2</title>
<path fill="none" stroke="black" d="M427.53,-348.43C457.8,-373.77 512.3,-419.37 545.6,-447.24"/>
<polygon fill="black" stroke="black" points="543.86,-448.98 550.81,-451.59 547.01,-445.22 543.86,-448.98"/>
</g>
<!-- facet&#45;oauth2&#45;&gt;facet&#45;core -->
<g id="edge23" class="edge">
<title>facet&#45;oauth2&#45;&gt;facet&#45;core</title>
<path fill="none" stroke="black" d="M588.91,-452.7C600.13,-436.52 616.57,-412.11 629.5,-390 652.66,-350.41 676.37,-302.69 690.25,-273.87"/>
<polygon fill="black" stroke="black" points="692.43,-275.01 693.24,-267.64 688.01,-272.89 692.43,-275.01"/>
</g>
<!-- facet&#45;generator&#45;&gt;facet&#45;core -->
<g id="edge31" class="edge">
<title>facet&#45;generator&#45;&gt;facet&#45;core</title>
<path fill="none" stroke="black" d="M607.66,-182.37C614.91,-186.73 622.52,-191.44 629.5,-196 643.35,-205.05 658.28,-215.55 671.01,-224.74"/>
<polygon fill="black" stroke="black" points="669.51,-226.68 676.61,-228.8 672.39,-222.71 669.51,-226.68"/>
</g>
</g>
</svg>
