<?xml version="1.0" encoding="UTF-8" standalone="no"?>
<!DOCTYPE svg PUBLIC "-//W3C//DTD SVG 1.1//EN"
 "http://www.w3.org/Graphics/SVG/1.1/DTD/svg11.dtd">
<!-- Generated by graphviz version 13.1.2 (20250808.2320)
 -->
<!-- Title: microservice&#45;konsent Pages: 1 -->
<svg width="763pt" height="425pt"
 viewBox="0.00 0.00 763.00 425.00" xmlns="http://www.w3.org/2000/svg" xmlns:xlink="http://www.w3.org/1999/xlink">
<g id="graph0" class="graph" transform="scale(1 1) rotate(0) translate(4 421.14)">
<title>microservice&#45;konsent</title>
<polygon fill="white" stroke="none" points="-4,4 -4,-421.14 759,-421.14 759,4 -4,4"/>
<!-- microservice&#45;konsent -->
<g id="node1" class="node">
<title>microservice&#45;konsent</title>
<polygon fill="lightgrey" stroke="black" points="144.25,-227 0,-227 0,-191 144.25,-191 144.25,-227"/>
<text xml:space="preserve" text-anchor="middle" x="72.12" y="-203.57" font-family="Arial" font-size="14.00">microservice&#45;konsent</text>
</g>
<!-- facet&#45;organization -->
<g id="node2" class="node">
<title>facet&#45;organization</title>
<polygon fill="none" stroke="black" points="303.5,-99 180.25,-99 180.25,-63 303.5,-63 303.5,-99"/>
<text xml:space="preserve" text-anchor="middle" x="241.88" y="-75.58" font-family="Arial" font-size="14.00">facet&#45;organization</text>
</g>
<!-- microservice&#45;konsent&#45;&gt;facet&#45;organization -->
<g id="edge1" class="edge">
<title>microservice&#45;konsent&#45;&gt;facet&#45;organization</title>
<path fill="none" stroke="black" d="M90.92,-190.53C111.29,-170.02 146.23,-136.69 180.25,-113 185.02,-109.68 190.17,-106.46 195.39,-103.43"/>
<polygon fill="black" stroke="black" points="196.3,-105.73 201.2,-100.16 193.9,-101.46 196.3,-105.73"/>
</g>
<!-- facet&#45;acl -->
<g id="node3" class="node">
<title>facet&#45;acl</title>
<polygon fill="none" stroke="black" points="453,-204 386,-204 386,-168 453,-168 453,-204"/>
<text xml:space="preserve" text-anchor="middle" x="419.5" y="-180.57" font-family="Arial" font-size="14.00">facet&#45;acl</text>
</g>
<!-- microservice&#45;konsent&#45;&gt;facet&#45;acl -->
<g id="edge2" class="edge">
<title>microservice&#45;konsent&#45;&gt;facet&#45;acl</title>
<path fill="none" stroke="black" d="M144.69,-204.23C214.97,-199.55 319.77,-192.57 377.2,-188.75"/>
<polygon fill="black" stroke="black" points="377.32,-191.2 384.14,-188.29 377,-186.31 377.32,-191.2"/>
</g>
<!-- facet&#45;generator&#45;docx -->
<g id="node4" class="node">
<title>facet&#45;generator&#45;docx</title>
<polygon fill="none" stroke="black" points="489.75,-396 349.25,-396 349.25,-360 489.75,-360 489.75,-396"/>
<text xml:space="preserve" text-anchor="middle" x="419.5" y="-372.57" font-family="Arial" font-size="14.00">facet&#45;generator&#45;docx</text>
</g>
<!-- microservice&#45;konsent&#45;&gt;facet&#45;generator&#45;docx -->
<g id="edge3" class="edge">
<title>microservice&#45;konsent&#45;&gt;facet&#45;generator&#45;docx</title>
<path fill="none" stroke="black" d="M85.69,-227.45C103.66,-252.38 139.14,-296.41 180.25,-320 229.46,-348.24 292.02,-362.8 340.68,-370.26"/>
<polygon fill="black" stroke="black" points="340.2,-372.67 347.48,-371.27 340.91,-367.82 340.2,-372.67"/>
</g>
<!-- facet&#45;crypto -->
<g id="node5" class="node">
<title>facet&#45;crypto</title>
<polygon fill="none" stroke="black" points="632.5,-296 546,-296 546,-260 632.5,-260 632.5,-296"/>
<text xml:space="preserve" text-anchor="middle" x="589.25" y="-272.57" font-family="Arial" font-size="14.00">facet&#45;crypto</text>
</g>
<!-- microservice&#45;konsent&#45;&gt;facet&#45;crypto -->
<g id="edge4" class="edge">
<title>microservice&#45;konsent&#45;&gt;facet&#45;crypto</title>
<path fill="none" stroke="black" d="M103.81,-227.26C124.61,-238.63 153.15,-252.32 180.25,-259 305.8,-289.94 459.51,-286.44 537.55,-281.87"/>
<polygon fill="black" stroke="black" points="537.43,-284.33 544.27,-281.46 537.13,-279.44 537.43,-284.33"/>
</g>
<!-- facet&#45;generator&#45;pdf -->
<g id="node6" class="node">
<title>facet&#45;generator&#45;pdf</title>
<polygon fill="none" stroke="black" points="484.88,-342 354.12,-342 354.12,-306 484.88,-306 484.88,-342"/>
<text xml:space="preserve" text-anchor="middle" x="419.5" y="-318.57" font-family="Arial" font-size="14.00">facet&#45;generator&#45;pdf</text>
</g>
<!-- microservice&#45;konsent&#45;&gt;facet&#45;generator&#45;pdf -->
<g id="edge5" class="edge">
<title>microservice&#45;konsent&#45;&gt;facet&#45;generator&#45;pdf</title>
<path fill="none" stroke="black" d="M90.54,-227.33C110.29,-246.87 144.44,-277.01 180.25,-292 232.75,-313.97 296.92,-321.61 345.43,-323.96"/>
<polygon fill="black" stroke="black" points="345.07,-326.4 352.17,-324.25 345.28,-321.5 345.07,-326.4"/>
</g>
<!-- facet&#45;bucket&#45;s3 -->
<g id="node7" class="node">
<title>facet&#45;bucket&#45;s3</title>
<polygon fill="none" stroke="black" points="296,-250 187.75,-250 187.75,-214 296,-214 296,-250"/>
<text xml:space="preserve" text-anchor="middle" x="241.88" y="-226.57" font-family="Arial" font-size="14.00">facet&#45;bucket&#45;s3</text>
</g>
<!-- microservice&#45;konsent&#45;&gt;facet&#45;bucket&#45;s3 -->
<g id="edge6" class="edge">
<title>microservice&#45;konsent&#45;&gt;facet&#45;bucket&#45;s3</title>
<path fill="none" stroke="black" d="M144.27,-218.75C155.91,-220.35 167.88,-221.99 179.27,-223.55"/>
<polygon fill="black" stroke="black" points="178.67,-225.94 185.94,-224.47 179.34,-221.09 178.67,-225.94"/>
</g>
<!-- facet&#45;projekt -->
<g id="node8" class="node">
<title>facet&#45;projekt</title>
<polygon fill="none" stroke="black" points="287,-158 196.75,-158 196.75,-122 287,-122 287,-158"/>
<text xml:space="preserve" text-anchor="middle" x="241.88" y="-134.57" font-family="Arial" font-size="14.00">facet&#45;projekt</text>
</g>
<!-- microservice&#45;konsent&#45;&gt;facet&#45;projekt -->
<g id="edge7" class="edge">
<title>microservice&#45;konsent&#45;&gt;facet&#45;projekt</title>
<path fill="none" stroke="black" d="M118.08,-190.51C139.78,-181.58 165.95,-170.82 188.55,-161.52"/>
<polygon fill="black" stroke="black" points="189.44,-163.81 194.98,-158.88 187.57,-159.28 189.44,-163.81"/>
</g>
<!-- facet&#45;strukture&#45;common -->
<g id="node9" class="node">
<title>facet&#45;strukture&#45;common</title>
<polygon fill="none" stroke="black" points="499.5,-36 339.5,-36 339.5,0 499.5,0 499.5,-36"/>
<text xml:space="preserve" text-anchor="middle" x="419.5" y="-12.57" font-family="Arial" font-size="14.00">facet&#45;strukture&#45;common</text>
</g>
<!-- microservice&#45;konsent&#45;&gt;facet&#45;strukture&#45;common -->
<g id="edge8" class="edge">
<title>microservice&#45;konsent&#45;&gt;facet&#45;strukture&#45;common</title>
<path fill="none" stroke="black" d="M79.98,-190.76C93.53,-157.45 127.11,-87.17 180.25,-54 224.77,-26.21 282.88,-17.01 330.57,-14.86"/>
<polygon fill="black" stroke="black" points="330.62,-17.31 337.53,-14.6 330.44,-12.41 330.62,-17.31"/>
</g>
<!-- facet&#45;organization&#45;&gt;facet&#45;strukture&#45;common -->
<g id="edge19" class="edge">
<title>facet&#45;organization&#45;&gt;facet&#45;strukture&#45;common</title>
<path fill="none" stroke="black" d="M294.15,-62.61C314.52,-55.3 338.1,-46.84 359.21,-39.27"/>
<polygon fill="black" stroke="black" points="359.98,-41.6 365.74,-36.93 358.33,-36.98 359.98,-41.6"/>
</g>
<!-- facet&#45;core -->
<g id="node10" class="node">
<title>facet&#45;core</title>
<polygon fill="none" stroke="black" points="755,-250 679,-250 679,-214 755,-214 755,-250"/>
<text xml:space="preserve" text-anchor="middle" x="717" y="-226.57" font-family="Arial" font-size="14.00">facet&#45;core</text>
</g>
<!-- facet&#45;organization&#45;&gt;facet&#45;core -->
<g id="edge20" class="edge">
<title>facet&#45;organization&#45;&gt;facet&#45;core</title>
<path fill="none" stroke="black" d="M303.76,-69.12C387.45,-56.26 539.41,-45.71 643,-113 676.67,-134.87 697.33,-178.26 707.72,-206.17"/>
<polygon fill="black" stroke="black" points="705.33,-206.75 709.99,-212.52 709.94,-205.1 705.33,-206.75"/>
</g>
<!-- facet&#45;oauth2 -->
<g id="node12" class="node">
<title>facet&#45;oauth2</title>
<polygon fill="none" stroke="black" points="634.75,-158 543.75,-158 543.75,-122 634.75,-122 634.75,-158"/>
<text xml:space="preserve" text-anchor="middle" x="589.25" y="-134.57" font-family="Arial" font-size="14.00">facet&#45;oauth2</text>
</g>
<!-- facet&#45;organization&#45;&gt;facet&#45;oauth2 -->
<g id="edge21" class="edge">
<title>facet&#45;organization&#45;&gt;facet&#45;oauth2</title>
<path fill="none" stroke="black" d="M303.83,-91.41C369.43,-102.62 472.75,-120.27 535.15,-130.93"/>
<polygon fill="black" stroke="black" points="534.49,-133.3 541.8,-132.07 535.32,-128.47 534.49,-133.3"/>
</g>
<!-- facet&#45;acl&#45;&gt;facet&#45;core -->
<g id="edge23" class="edge">
<title>facet&#45;acl&#45;&gt;facet&#45;core</title>
<path fill="none" stroke="black" d="M453.37,-190.24C496.86,-195.96 575.84,-206.74 643,-218 651.87,-219.49 661.31,-221.2 670.37,-222.91"/>
<polygon fill="black" stroke="black" points="669.73,-225.28 677.06,-224.19 670.64,-220.47 669.73,-225.28"/>
</g>
<!-- facet&#45;acl&#45;&gt;facet&#45;oauth2 -->
<g id="edge24" class="edge">
<title>facet&#45;acl&#45;&gt;facet&#45;oauth2</title>
<path fill="none" stroke="black" d="M453.24,-177.02C476.57,-170.62 508.44,-161.89 535.35,-154.51"/>
<polygon fill="black" stroke="black" points="535.97,-156.88 542.07,-152.66 534.67,-152.15 535.97,-156.88"/>
</g>
<!-- facet&#45;generator&#45;docx&#45;&gt;facet&#45;core -->
<g id="edge9" class="edge">
<title>facet&#45;generator&#45;docx&#45;&gt;facet&#45;core</title>
<path fill="none" stroke="black" d="M463.67,-396.41C511.52,-413.7 589.07,-432.11 643,-397 690.47,-366.1 707.3,-296.53 713.09,-258.33"/>
<polygon fill="black" stroke="black" points="715.47,-259.01 714.02,-251.74 710.62,-258.33 715.47,-259.01"/>
</g>
<!-- facet&#45;generator -->
<g id="node11" class="node">
<title>facet&#45;generator</title>
<polygon fill="none" stroke="black" points="643,-388 535.5,-388 535.5,-352 643,-352 643,-388"/>
<text xml:space="preserve" text-anchor="middle" x="589.25" y="-364.57" font-family="Arial" font-size="14.00">facet&#45;generator</text>
</g>
<!-- facet&#45;generator&#45;docx&#45;&gt;facet&#45;generator -->
<g id="edge10" class="edge">
<title>facet&#45;generator&#45;docx&#45;&gt;facet&#45;generator</title>
<path fill="none" stroke="black" d="M490.18,-374.68C502.4,-374.09 515.03,-373.49 526.99,-372.92"/>
<polygon fill="black" stroke="black" points="526.77,-375.39 533.64,-372.6 526.53,-370.49 526.77,-375.39"/>
</g>
<!-- facet&#45;crypto&#45;&gt;facet&#45;core -->
<g id="edge12" class="edge">
<title>facet&#45;crypto&#45;&gt;facet&#45;core</title>
<path fill="none" stroke="black" d="M632.82,-262.43C644.98,-257.98 658.27,-253.12 670.59,-248.61"/>
<polygon fill="black" stroke="black" points="671.37,-250.93 677.1,-246.23 669.69,-246.33 671.37,-250.93"/>
</g>
<!-- facet&#45;generator&#45;pdf&#45;&gt;facet&#45;core -->
<g id="edge13" class="edge">
<title>facet&#45;generator&#45;pdf&#45;&gt;facet&#45;core</title>
<path fill="none" stroke="black" d="M485.34,-329.91C531.41,-331.45 593.61,-327.97 643,-305 665.81,-294.39 685.56,-273.47 698.74,-256.73"/>
<polygon fill="black" stroke="black" points="700.41,-258.58 702.71,-251.53 696.52,-255.6 700.41,-258.58"/>
</g>
<!-- facet&#45;generator&#45;pdf&#45;&gt;facet&#45;generator -->
<g id="edge14" class="edge">
<title>facet&#45;generator&#45;pdf&#45;&gt;facet&#45;generator</title>
<path fill="none" stroke="black" d="M485.36,-341.78C499.15,-345.57 513.67,-349.55 527.32,-353.29"/>
<polygon fill="black" stroke="black" points="526.38,-355.57 533.78,-355.06 527.67,-350.85 526.38,-355.57"/>
</g>
<!-- facet&#45;bucket&#45;s3&#45;&gt;facet&#45;core -->
<g id="edge15" class="edge">
<title>facet&#45;bucket&#45;s3&#45;&gt;facet&#45;core</title>
<path fill="none" stroke="black" d="M296.23,-232C389.9,-232 582.31,-232 670.28,-232"/>
<polygon fill="black" stroke="black" points="670.2,-234.45 677.2,-232 670.2,-229.55 670.2,-234.45"/>
</g>
<!-- facet&#45;projekt&#45;&gt;facet&#45;oauth2 -->
<g id="edge16" class="edge">
<title>facet&#45;projekt&#45;&gt;facet&#45;oauth2</title>
<path fill="none" stroke="black" d="M287.32,-140C350.74,-140 467.03,-140 534.98,-140"/>
<polygon fill="black" stroke="black" points="534.92,-142.45 541.92,-140 534.92,-137.55 534.92,-142.45"/>
</g>
<!-- facet&#45;strukture&#45;common&#45;&gt;facet&#45;core -->
<g id="edge17" class="edge">
<title>facet&#45;strukture&#45;common&#45;&gt;facet&#45;core</title>
<path fill="none" stroke="black" d="M499.89,-10.84C546.14,-10.86 603.03,-18.59 643,-50 692,-88.51 708.25,-165.01 713.53,-205.48"/>
<polygon fill="black" stroke="black" points="711.08,-205.61 714.35,-212.27 715.95,-205.03 711.08,-205.61"/>
</g>
<!-- facet&#45;strukture&#45;common&#45;&gt;facet&#45;oauth2 -->
<g id="edge18" class="edge">
<title>facet&#45;strukture&#45;common&#45;&gt;facet&#45;oauth2</title>
<path fill="none" stroke="black" d="M445.61,-36.26C475.14,-57.74 524.18,-93.41 556.37,-116.81"/>
<polygon fill="black" stroke="black" points="554.64,-118.58 561.74,-120.72 557.52,-114.62 554.64,-118.58"/>
</g>
<!-- facet&#45;generator&#45;&gt;facet&#45;core -->
<g id="edge11" class="edge">
<title>facet&#45;generator&#45;&gt;facet&#45;core</title>
<path fill="none" stroke="black" d="M625.24,-351.66C631.5,-347.6 637.7,-343 643,-338 668.11,-314.3 689.51,-280.59 702.52,-257.59"/>
<polygon fill="black" stroke="black" points="704.62,-258.86 705.87,-251.55 700.33,-256.48 704.62,-258.86"/>
</g>
<!-- facet&#45;oauth2&#45;&gt;facet&#45;core -->
<g id="edge22" class="edge">
<title>facet&#45;oauth2&#45;&gt;facet&#45;core</title>
<path fill="none" stroke="black" d="M617.83,-158.4C626,-163.96 634.92,-170.15 643,-176 657.32,-186.37 672.91,-198.24 685.99,-208.38"/>
<polygon fill="black" stroke="black" points="684.35,-210.21 691.38,-212.58 687.36,-206.35 684.35,-210.21"/>
</g>
</g>
</svg>
