<?xml version="1.0" encoding="UTF-8" standalone="no"?>
<!DOCTYPE svg PUBLIC "-//W3C//DTD SVG 1.1//EN"
 "http://www.w3.org/Graphics/SVG/1.1/DTD/svg11.dtd">
<!-- Generated by graphviz version 13.1.2 (20250808.2320)
 -->
<!-- Title: microservice&#45;selfdata Pages: 1 -->
<svg width="765pt" height="702pt"
 viewBox="0.00 0.00 765.00 702.00" xmlns="http://www.w3.org/2000/svg" xmlns:xlink="http://www.w3.org/1999/xlink">
<g id="graph0" class="graph" transform="scale(1 1) rotate(0) translate(4 698.44)">
<title>microservice&#45;selfdata</title>
<polygon fill="white" stroke="none" points="-4,4 -4,-698.44 760.5,-698.44 760.5,4 -4,4"/>
<!-- microservice&#45;selfdata -->
<g id="node1" class="node">
<title>microservice&#45;selfdata</title>
<polygon fill="lightgrey" stroke="black" points="144.25,-399.72 0,-399.72 0,-363.72 144.25,-363.72 144.25,-399.72"/>
<text xml:space="preserve" text-anchor="middle" x="72.12" y="-376.3" font-family="Arial" font-size="14.00">microservice&#45;selfdata</text>
</g>
<!-- facet&#45;kaccess -->
<g id="node2" class="node">
<title>facet&#45;kaccess</title>
<polygon fill="none" stroke="black" points="468.75,-662.72 370.25,-662.72 370.25,-626.72 468.75,-626.72 468.75,-662.72"/>
<text xml:space="preserve" text-anchor="middle" x="419.5" y="-639.3" font-family="Arial" font-size="14.00">facet&#45;kaccess</text>
</g>
<!-- microservice&#45;selfdata&#45;&gt;facet&#45;kaccess -->
<g id="edge1" class="edge">
<title>microservice&#45;selfdata&#45;&gt;facet&#45;kaccess</title>
<path fill="none" stroke="black" d="M76.66,-400.07C85.75,-441.94 114.01,-544.86 180.25,-595.72 232.44,-635.79 309.37,-645.24 361.58,-646.49"/>
<polygon fill="black" stroke="black" points="361.51,-648.94 368.55,-646.6 361.59,-644.04 361.51,-648.94"/>
</g>
<!-- facet&#45;oauth2 -->
<g id="node3" class="node">
<title>facet&#45;oauth2</title>
<polygon fill="none" stroke="black" points="635.5,-453.72 544.5,-453.72 544.5,-417.72 635.5,-417.72 635.5,-453.72"/>
<text xml:space="preserve" text-anchor="middle" x="590" y="-430.3" font-family="Arial" font-size="14.00">facet&#45;oauth2</text>
</g>
<!-- microservice&#45;selfdata&#45;&gt;facet&#45;oauth2 -->
<g id="edge2" class="edge">
<title>microservice&#45;selfdata&#45;&gt;facet&#45;oauth2</title>
<path fill="none" stroke="black" d="M83.39,-400.03C99.78,-427.14 134.71,-476.91 180.25,-496.72 304.12,-550.62 466.89,-492.24 544.33,-457.58"/>
<polygon fill="black" stroke="black" points="545.26,-459.85 550.63,-454.72 543.24,-455.39 545.26,-459.85"/>
</g>
<!-- facet&#45;providers -->
<g id="node4" class="node">
<title>facet&#45;providers</title>
<polygon fill="none" stroke="black" points="294.5,-586.72 189.25,-586.72 189.25,-550.72 294.5,-550.72 294.5,-586.72"/>
<text xml:space="preserve" text-anchor="middle" x="241.88" y="-563.3" font-family="Arial" font-size="14.00">facet&#45;providers</text>
</g>
<!-- microservice&#45;selfdata&#45;&gt;facet&#45;providers -->
<g id="edge3" class="edge">
<title>microservice&#45;selfdata&#45;&gt;facet&#45;providers</title>
<path fill="none" stroke="black" d="M82.05,-400.08C98.04,-431.44 134.25,-495.9 180.25,-536.72 183.9,-539.96 187.94,-542.98 192.14,-545.77"/>
<polygon fill="black" stroke="black" points="190.81,-547.83 198.05,-549.45 193.4,-543.67 190.81,-547.83"/>
</g>
<!-- facet&#45;email -->
<g id="node5" class="node">
<title>facet&#45;email</title>
<polygon fill="none" stroke="black" points="460.88,-288.72 378.12,-288.72 378.12,-252.72 460.88,-252.72 460.88,-288.72"/>
<text xml:space="preserve" text-anchor="middle" x="419.5" y="-265.3" font-family="Arial" font-size="14.00">facet&#45;email</text>
</g>
<!-- microservice&#45;selfdata&#45;&gt;facet&#45;email -->
<g id="edge4" class="edge">
<title>microservice&#45;selfdata&#45;&gt;facet&#45;email</title>
<path fill="none" stroke="black" d="M104.6,-363.41C125.5,-351.87 153.85,-337.38 180.25,-327.72 244.06,-304.37 321.01,-287.96 369.85,-278.93"/>
<polygon fill="black" stroke="black" points="370.1,-281.37 376.55,-277.71 369.22,-276.55 370.1,-281.37"/>
</g>
<!-- facet&#45;generator&#45;text -->
<g id="node6" class="node">
<title>facet&#45;generator&#45;text</title>
<polygon fill="none" stroke="black" points="486.38,-142.72 352.62,-142.72 352.62,-106.72 486.38,-106.72 486.38,-142.72"/>
<text xml:space="preserve" text-anchor="middle" x="419.5" y="-119.3" font-family="Arial" font-size="14.00">facet&#45;generator&#45;text</text>
</g>
<!-- microservice&#45;selfdata&#45;&gt;facet&#45;generator&#45;text -->
<g id="edge5" class="edge">
<title>microservice&#45;selfdata&#45;&gt;facet&#45;generator&#45;text</title>
<path fill="none" stroke="black" d="M78.76,-363.27C91.01,-326.25 123.63,-242.62 180.25,-197.72 227.29,-160.42 293.34,-142.11 343.97,-133.16"/>
<polygon fill="black" stroke="black" points="344.29,-135.59 350.79,-132 343.47,-130.76 344.29,-135.59"/>
</g>
<!-- facet&#45;organization -->
<g id="node7" class="node">
<title>facet&#45;organization</title>
<polygon fill="none" stroke="black" points="303.5,-372.72 180.25,-372.72 180.25,-336.72 303.5,-336.72 303.5,-372.72"/>
<text xml:space="preserve" text-anchor="middle" x="241.88" y="-349.3" font-family="Arial" font-size="14.00">facet&#45;organization</text>
</g>
<!-- microservice&#45;selfdata&#45;&gt;facet&#45;organization -->
<g id="edge6" class="edge">
<title>microservice&#45;selfdata&#45;&gt;facet&#45;organization</title>
<path fill="none" stroke="black" d="M144.27,-370.27C153.36,-368.81 162.66,-367.31 171.72,-365.85"/>
<polygon fill="black" stroke="black" points="171.94,-368.3 178.47,-364.77 171.16,-363.46 171.94,-368.3"/>
</g>
<!-- facet&#45;apigateway -->
<g id="node8" class="node">
<title>facet&#45;apigateway</title>
<polygon fill="none" stroke="black" points="300.88,-487.72 182.88,-487.72 182.88,-451.72 300.88,-451.72 300.88,-487.72"/>
<text xml:space="preserve" text-anchor="middle" x="241.88" y="-464.3" font-family="Arial" font-size="14.00">facet&#45;apigateway</text>
</g>
<!-- microservice&#45;selfdata&#45;&gt;facet&#45;apigateway -->
<g id="edge7" class="edge">
<title>microservice&#45;selfdata&#45;&gt;facet&#45;apigateway</title>
<path fill="none" stroke="black" d="M108.29,-400.17C134.57,-413.95 170.62,-432.86 198.49,-447.49"/>
<polygon fill="black" stroke="black" points="197.08,-449.51 204.42,-450.59 199.35,-445.17 197.08,-449.51"/>
</g>
<!-- facet&#45;bpmn -->
<g id="node9" class="node">
<title>facet&#45;bpmn</title>
<polygon fill="none" stroke="black" points="284,-242.72 199.75,-242.72 199.75,-206.72 284,-206.72 284,-242.72"/>
<text xml:space="preserve" text-anchor="middle" x="241.88" y="-219.3" font-family="Arial" font-size="14.00">facet&#45;bpmn</text>
</g>
<!-- microservice&#45;selfdata&#45;&gt;facet&#45;bpmn -->
<g id="edge8" class="edge">
<title>microservice&#45;selfdata&#45;&gt;facet&#45;bpmn</title>
<path fill="none" stroke="black" d="M90.89,-363.26C111.79,-341.74 147.78,-305.35 180.25,-275.72 190.25,-266.59 201.52,-256.94 211.61,-248.52"/>
<polygon fill="black" stroke="black" points="213.06,-250.51 216.88,-244.15 209.93,-246.74 213.06,-250.51"/>
</g>
<!-- facet&#45;rva -->
<g id="node12" class="node">
<title>facet&#45;rva</title>
<polygon fill="none" stroke="black" points="276.12,-426.72 207.62,-426.72 207.62,-390.72 276.12,-390.72 276.12,-426.72"/>
<text xml:space="preserve" text-anchor="middle" x="241.88" y="-403.3" font-family="Arial" font-size="14.00">facet&#45;rva</text>
</g>
<!-- microservice&#45;selfdata&#45;&gt;facet&#45;rva -->
<g id="edge15" class="edge">
<title>microservice&#45;selfdata&#45;&gt;facet&#45;rva</title>
<path fill="none" stroke="black" d="M144.27,-393.17C162.97,-396.18 182.54,-399.33 199.14,-402"/>
<polygon fill="black" stroke="black" points="198.73,-404.42 206.03,-403.11 199.51,-399.58 198.73,-404.42"/>
</g>
<!-- facet&#45;doks -->
<g id="node13" class="node">
<title>facet&#45;doks</title>
<polygon fill="none" stroke="black" points="281,-110.72 202.75,-110.72 202.75,-74.72 281,-74.72 281,-110.72"/>
<text xml:space="preserve" text-anchor="middle" x="241.88" y="-87.3" font-family="Arial" font-size="14.00">facet&#45;doks</text>
</g>
<!-- microservice&#45;selfdata&#45;&gt;facet&#45;doks -->
<g id="edge16" class="edge">
<title>microservice&#45;selfdata&#45;&gt;facet&#45;doks</title>
<path fill="none" stroke="black" d="M79.14,-363.22C92.92,-322.53 129.5,-223.19 180.25,-151.72 189.28,-139.01 201.24,-126.69 212.16,-116.63"/>
<polygon fill="black" stroke="black" points="213.75,-118.5 217.31,-111.99 210.47,-114.86 213.75,-118.5"/>
</g>
<!-- facet&#45;core -->
<g id="node10" class="node">
<title>facet&#45;core</title>
<polygon fill="none" stroke="black" points="756.5,-315.72 680.5,-315.72 680.5,-279.72 756.5,-279.72 756.5,-315.72"/>
<text xml:space="preserve" text-anchor="middle" x="718.5" y="-292.3" font-family="Arial" font-size="14.00">facet&#45;core</text>
</g>
<!-- facet&#45;kaccess&#45;&gt;facet&#45;core -->
<g id="edge23" class="edge">
<title>facet&#45;kaccess&#45;&gt;facet&#45;core</title>
<path fill="none" stroke="black" d="M455.22,-663.06C503.41,-685.68 590.68,-716.05 644.5,-671.72 698.34,-627.37 713.01,-402.32 716.51,-324.35"/>
<polygon fill="black" stroke="black" points="718.95,-324.62 716.81,-317.53 714.06,-324.41 718.95,-324.62"/>
</g>
<!-- facet&#45;dataset -->
<g id="node16" class="node">
<title>facet&#45;dataset</title>
<polygon fill="none" stroke="black" points="637,-662.72 543,-662.72 543,-626.72 637,-626.72 637,-662.72"/>
<text xml:space="preserve" text-anchor="middle" x="590" y="-639.3" font-family="Arial" font-size="14.00">facet&#45;dataset</text>
</g>
<!-- facet&#45;kaccess&#45;&gt;facet&#45;dataset -->
<g id="edge24" class="edge">
<title>facet&#45;kaccess&#45;&gt;facet&#45;dataset</title>
<path fill="none" stroke="black" d="M469.24,-644.72C489.57,-644.72 513.28,-644.72 534.21,-644.72"/>
<polygon fill="black" stroke="black" points="534.17,-647.17 541.17,-644.72 534.17,-642.27 534.17,-647.17"/>
</g>
<!-- facet&#45;dataverse -->
<g id="node17" class="node">
<title>facet&#45;dataverse</title>
<polygon fill="none" stroke="black" points="644.5,-608.72 535.5,-608.72 535.5,-572.72 644.5,-572.72 644.5,-608.72"/>
<text xml:space="preserve" text-anchor="middle" x="590" y="-585.3" font-family="Arial" font-size="14.00">facet&#45;dataverse</text>
</g>
<!-- facet&#45;kaccess&#45;&gt;facet&#45;dataverse -->
<g id="edge25" class="edge">
<title>facet&#45;kaccess&#45;&gt;facet&#45;dataverse</title>
<path fill="none" stroke="black" d="M469.24,-629.1C487.27,-623.32 507.95,-616.69 527,-610.59"/>
<polygon fill="black" stroke="black" points="527.7,-612.94 533.61,-608.47 526.2,-608.27 527.7,-612.94"/>
</g>
<!-- facet&#45;oauth2&#45;&gt;facet&#45;core -->
<g id="edge28" class="edge">
<title>facet&#45;oauth2&#45;&gt;facet&#45;core</title>
<path fill="none" stroke="black" d="M615.69,-417.3C625.11,-409.8 635.7,-400.77 644.5,-391.72 665.54,-370.08 686.34,-342.54 700.32,-322.87"/>
<polygon fill="black" stroke="black" points="702.25,-324.37 704.27,-317.24 698.24,-321.55 702.25,-324.37"/>
</g>
<!-- facet&#45;providers&#45;&gt;facet&#45;oauth2 -->
<g id="edge31" class="edge">
<title>facet&#45;providers&#45;&gt;facet&#45;oauth2</title>
<path fill="none" stroke="black" d="M294.74,-572.64C348.95,-574.45 434.95,-570.73 499.5,-536.72 532.37,-519.4 558.87,-484.78 574.27,-460.94"/>
<polygon fill="black" stroke="black" points="576.22,-462.43 577.88,-455.2 572.08,-459.82 576.22,-462.43"/>
</g>
<!-- facet&#45;providers&#45;&gt;facet&#45;core -->
<g id="edge30" class="edge">
<title>facet&#45;providers&#45;&gt;facet&#45;core</title>
<path fill="none" stroke="black" d="M294.99,-577.99C347.91,-585.28 431.52,-590.92 499.5,-568.72 575.38,-543.94 594.43,-524.89 644.5,-462.72 678.97,-419.92 700.48,-358.29 710.6,-323.74"/>
<polygon fill="black" stroke="black" points="712.84,-324.84 712.4,-317.43 708.13,-323.49 712.84,-324.84"/>
</g>
<!-- facet&#45;strukture&#45;common -->
<g id="node14" class="node">
<title>facet&#45;strukture&#45;common</title>
<polygon fill="none" stroke="black" points="499.5,-418.72 339.5,-418.72 339.5,-382.72 499.5,-382.72 499.5,-418.72"/>
<text xml:space="preserve" text-anchor="middle" x="419.5" y="-395.3" font-family="Arial" font-size="14.00">facet&#45;strukture&#45;common</text>
</g>
<!-- facet&#45;providers&#45;&gt;facet&#45;strukture&#45;common -->
<g id="edge29" class="edge">
<title>facet&#45;providers&#45;&gt;facet&#45;strukture&#45;common</title>
<path fill="none" stroke="black" d="M262,-550.42C293.94,-519.87 358.1,-458.5 393.54,-424.59"/>
<polygon fill="black" stroke="black" points="394.94,-426.65 398.3,-420.04 391.55,-423.11 394.94,-426.65"/>
</g>
<!-- facet&#45;email&#45;&gt;facet&#45;core -->
<g id="edge34" class="edge">
<title>facet&#45;email&#45;&gt;facet&#45;core</title>
<path fill="none" stroke="black" d="M461.17,-274.42C516.29,-279.43 614.41,-288.35 671.94,-293.58"/>
<polygon fill="black" stroke="black" points="671.42,-295.99 678.62,-294.19 671.87,-291.11 671.42,-295.99"/>
</g>
<!-- facet&#45;generator&#45;text&#45;&gt;facet&#45;core -->
<g id="edge35" class="edge">
<title>facet&#45;generator&#45;text&#45;&gt;facet&#45;core</title>
<path fill="none" stroke="black" d="M486.87,-138.03C543.4,-150.33 619.36,-169.41 644.5,-187.72 674.09,-209.27 695.17,-246.75 706.85,-271.89"/>
<polygon fill="black" stroke="black" points="704.58,-272.82 709.68,-278.2 709.05,-270.81 704.58,-272.82"/>
</g>
<!-- facet&#45;generator -->
<g id="node18" class="node">
<title>facet&#45;generator</title>
<polygon fill="none" stroke="black" points="643.75,-136.72 536.25,-136.72 536.25,-100.72 643.75,-100.72 643.75,-136.72"/>
<text xml:space="preserve" text-anchor="middle" x="590" y="-113.3" font-family="Arial" font-size="14.00">facet&#45;generator</text>
</g>
<!-- facet&#45;generator&#45;text&#45;&gt;facet&#45;generator -->
<g id="edge36" class="edge">
<title>facet&#45;generator&#45;text&#45;&gt;facet&#45;generator</title>
<path fill="none" stroke="black" d="M486.61,-122.37C500.13,-121.88 514.29,-121.38 527.63,-120.91"/>
<polygon fill="black" stroke="black" points="527.4,-123.37 534.31,-120.67 527.22,-118.47 527.4,-123.37"/>
</g>
<!-- facet&#45;organization&#45;&gt;facet&#45;oauth2 -->
<g id="edge40" class="edge">
<title>facet&#45;organization&#45;&gt;facet&#45;oauth2</title>
<path fill="none" stroke="black" d="M303.82,-350.37C357.01,-348.63 435.48,-351.08 499.5,-373.72 523.1,-382.06 546.23,-398.37 563.07,-412.16"/>
<polygon fill="black" stroke="black" points="561.33,-413.9 568.26,-416.52 564.48,-410.15 561.33,-413.9"/>
</g>
<!-- facet&#45;organization&#45;&gt;facet&#45;core -->
<g id="edge39" class="edge">
<title>facet&#45;organization&#45;&gt;facet&#45;core</title>
<path fill="none" stroke="black" d="M303.95,-347.38C400.51,-335.79 586.24,-313.48 672.02,-303.18"/>
<polygon fill="black" stroke="black" points="672.09,-305.64 678.75,-302.37 671.51,-300.78 672.09,-305.64"/>
</g>
<!-- facet&#45;organization&#45;&gt;facet&#45;strukture&#45;common -->
<g id="edge38" class="edge">
<title>facet&#45;organization&#45;&gt;facet&#45;strukture&#45;common</title>
<path fill="none" stroke="black" d="M303.81,-370.68C315.51,-373.74 327.92,-376.99 340.08,-380.18"/>
<polygon fill="black" stroke="black" points="339.17,-382.48 346.57,-381.88 340.42,-377.74 339.17,-382.48"/>
</g>
<!-- facet&#45;apigateway&#45;&gt;facet&#45;oauth2 -->
<g id="edge41" class="edge">
<title>facet&#45;apigateway&#45;&gt;facet&#45;oauth2</title>
<path fill="none" stroke="black" d="M301.25,-464.56C353.29,-459.89 431.51,-452.7 499.5,-445.72 511.38,-444.5 524.14,-443.12 536.19,-441.78"/>
<polygon fill="black" stroke="black" points="536.21,-444.24 542.9,-441.03 535.67,-439.37 536.21,-444.24"/>
</g>
<!-- facet&#45;bpmn&#45;&gt;facet&#45;email -->
<g id="edge10" class="edge">
<title>facet&#45;bpmn&#45;&gt;facet&#45;email</title>
<path fill="none" stroke="black" d="M284.5,-235.62C310.05,-242.31 342.9,-250.92 369.68,-257.93"/>
<polygon fill="black" stroke="black" points="368.93,-260.27 376.32,-259.67 370.17,-255.53 368.93,-260.27"/>
</g>
<!-- facet&#45;bpmn&#45;&gt;facet&#45;generator&#45;text -->
<g id="edge11" class="edge">
<title>facet&#45;bpmn&#45;&gt;facet&#45;generator&#45;text</title>
<path fill="none" stroke="black" d="M268.04,-206.24C278.98,-198.15 291.92,-188.52 303.5,-179.72 319.64,-167.46 321.67,-161.35 339.5,-151.72 342.91,-149.88 346.46,-148.13 350.1,-146.47"/>
<polygon fill="black" stroke="black" points="350.82,-148.83 356.27,-143.8 348.88,-144.33 350.82,-148.83"/>
</g>
<!-- facet&#45;bpmn&#45;&gt;facet&#45;core -->
<g id="edge9" class="edge">
<title>facet&#45;bpmn&#45;&gt;facet&#45;core</title>
<path fill="none" stroke="black" d="M284.44,-225.8C335.37,-227.58 424.21,-232.18 499.5,-243.72 564.93,-253.75 580.35,-261.42 644.5,-277.72 653.37,-279.98 662.82,-282.48 671.88,-284.94"/>
<polygon fill="black" stroke="black" points="671.2,-287.3 678.6,-286.78 672.49,-282.57 671.2,-287.3"/>
</g>
<!-- facet&#45;acl -->
<g id="node11" class="node">
<title>facet&#45;acl</title>
<polygon fill="none" stroke="black" points="453,-196.72 386,-196.72 386,-160.72 453,-160.72 453,-196.72"/>
<text xml:space="preserve" text-anchor="middle" x="419.5" y="-173.3" font-family="Arial" font-size="14.00">facet&#45;acl</text>
</g>
<!-- facet&#45;bpmn&#45;&gt;facet&#45;acl -->
<g id="edge12" class="edge">
<title>facet&#45;bpmn&#45;&gt;facet&#45;acl</title>
<path fill="none" stroke="black" d="M284.5,-213.82C312.65,-206.44 349.67,-196.75 377.66,-189.42"/>
<polygon fill="black" stroke="black" points="378.06,-191.85 384.21,-187.7 376.81,-187.11 378.06,-191.85"/>
</g>
<!-- facet&#45;acl&#45;&gt;facet&#45;oauth2 -->
<g id="edge14" class="edge">
<title>facet&#45;acl&#45;&gt;facet&#45;oauth2</title>
<path fill="none" stroke="black" d="M448.8,-197.19C465.21,-208.99 485.36,-225.47 499.5,-243.72 540.3,-296.37 568.17,-370.63 580.98,-409.56"/>
<polygon fill="black" stroke="black" points="578.54,-409.97 583.02,-415.87 583.2,-408.46 578.54,-409.97"/>
</g>
<!-- facet&#45;acl&#45;&gt;facet&#45;core -->
<g id="edge13" class="edge">
<title>facet&#45;acl&#45;&gt;facet&#45;core</title>
<path fill="none" stroke="black" d="M453.21,-180.1C498.64,-183.22 582.26,-193.42 644.5,-226.72 665.64,-238.03 684.87,-257.29 698.28,-272.89"/>
<polygon fill="black" stroke="black" points="696.32,-274.36 702.69,-278.16 700.08,-271.22 696.32,-274.36"/>
</g>
<!-- facet&#45;rva&#45;&gt;facet&#45;oauth2 -->
<g id="edge17" class="edge">
<title>facet&#45;rva&#45;&gt;facet&#45;oauth2</title>
<path fill="none" stroke="black" d="M276.2,-416.66C294.73,-420.72 318.27,-425.31 339.5,-427.72 406.87,-435.37 485.08,-436.66 535.72,-436.5"/>
<polygon fill="black" stroke="black" points="535.72,-438.95 542.71,-436.47 535.7,-434.05 535.72,-438.95"/>
</g>
<!-- facet&#45;rva&#45;&gt;facet&#45;strukture&#45;common -->
<g id="edge18" class="edge">
<title>facet&#45;rva&#45;&gt;facet&#45;strukture&#45;common</title>
<path fill="none" stroke="black" d="M276.32,-407.2C292,-406.48 311.48,-405.59 330.95,-404.71"/>
<polygon fill="black" stroke="black" points="330.89,-407.16 337.77,-404.4 330.67,-402.27 330.89,-407.16"/>
</g>
<!-- facet&#45;doks&#45;&gt;facet&#45;core -->
<g id="edge19" class="edge">
<title>facet&#45;doks&#45;&gt;facet&#45;core</title>
<path fill="none" stroke="black" d="M274.91,-74.36C348.47,-34.91 531.76,47.72 644.5,-37.72 682.16,-66.26 705.78,-211.07 714.11,-271.34"/>
<polygon fill="black" stroke="black" points="711.66,-271.49 715.03,-278.1 716.52,-270.83 711.66,-271.49"/>
</g>
<!-- facet&#45;doks&#45;&gt;facet&#45;acl -->
<g id="edge21" class="edge">
<title>facet&#45;doks&#45;&gt;facet&#45;acl</title>
<path fill="none" stroke="black" d="M269.48,-111.15C288.41,-123.72 314.77,-140.11 339.5,-151.72 351.56,-157.38 365.13,-162.45 377.59,-166.63"/>
<polygon fill="black" stroke="black" points="376.73,-168.93 384.14,-168.78 378.25,-164.27 376.73,-168.93"/>
</g>
<!-- facet&#45;crypto -->
<g id="node15" class="node">
<title>facet&#45;crypto</title>
<polygon fill="none" stroke="black" points="633.25,-82.72 546.75,-82.72 546.75,-46.72 633.25,-46.72 633.25,-82.72"/>
<text xml:space="preserve" text-anchor="middle" x="590" y="-59.3" font-family="Arial" font-size="14.00">facet&#45;crypto</text>
</g>
<!-- facet&#45;doks&#45;&gt;facet&#45;crypto -->
<g id="edge20" class="edge">
<title>facet&#45;doks&#45;&gt;facet&#45;crypto</title>
<path fill="none" stroke="black" d="M281.24,-89.62C343.9,-84.55 468.23,-74.49 538.17,-68.83"/>
<polygon fill="black" stroke="black" points="538.13,-71.29 544.91,-68.29 537.73,-66.41 538.13,-71.29"/>
</g>
<!-- facet&#45;strukture&#45;common&#45;&gt;facet&#45;oauth2 -->
<g id="edge33" class="edge">
<title>facet&#45;strukture&#45;common&#45;&gt;facet&#45;oauth2</title>
<path fill="none" stroke="black" d="M499.82,-417.2C512.04,-419.73 524.41,-422.3 535.88,-424.69"/>
<polygon fill="black" stroke="black" points="535.22,-427.05 542.57,-426.08 536.22,-422.25 535.22,-427.05"/>
</g>
<!-- facet&#45;strukture&#45;common&#45;&gt;facet&#45;core -->
<g id="edge32" class="edge">
<title>facet&#45;strukture&#45;common&#45;&gt;facet&#45;core</title>
<path fill="none" stroke="black" d="M486.89,-382.28C531.85,-369.23 592.33,-350.58 644.5,-330.72 653.74,-327.2 663.48,-323.09 672.73,-318.99"/>
<polygon fill="black" stroke="black" points="673.6,-321.29 678.98,-316.18 671.59,-316.82 673.6,-321.29"/>
</g>
<!-- facet&#45;crypto&#45;&gt;facet&#45;core -->
<g id="edge22" class="edge">
<title>facet&#45;crypto&#45;&gt;facet&#45;core</title>
<path fill="none" stroke="black" d="M633.55,-82.17C637.58,-84.96 641.34,-88.13 644.5,-91.72 690.95,-144.47 708.4,-228.74 714.5,-271.29"/>
<polygon fill="black" stroke="black" points="712.03,-271.36 715.4,-277.97 716.89,-270.71 712.03,-271.36"/>
</g>
<!-- facet&#45;dataset&#45;&gt;facet&#45;core -->
<g id="edge26" class="edge">
<title>facet&#45;dataset&#45;&gt;facet&#45;core</title>
<path fill="none" stroke="black" d="M635.51,-626.49C638.87,-623.91 641.94,-621 644.5,-617.72 680.7,-571.45 705.94,-392.14 714.39,-324.1"/>
<polygon fill="black" stroke="black" points="716.78,-324.75 715.2,-317.5 711.92,-324.15 716.78,-324.75"/>
</g>
<!-- facet&#45;dataverse&#45;&gt;facet&#45;core -->
<g id="edge27" class="edge">
<title>facet&#45;dataverse&#45;&gt;facet&#45;core</title>
<path fill="none" stroke="black" d="M630.13,-572.24C635.53,-568.38 640.56,-563.88 644.5,-558.72 699.46,-486.76 713.04,-375.5 716.4,-324.69"/>
<polygon fill="black" stroke="black" points="718.84,-324.85 716.81,-317.72 713.95,-324.56 718.84,-324.85"/>
</g>
<!-- facet&#45;generator&#45;&gt;facet&#45;core -->
<g id="edge37" class="edge">
<title>facet&#45;generator&#45;&gt;facet&#45;core</title>
<path fill="none" stroke="black" d="M628.2,-137.14C634.1,-141.09 639.8,-145.63 644.5,-150.72 677.53,-186.44 698.98,-239.9 709.59,-271.55"/>
<polygon fill="black" stroke="black" points="707.21,-272.15 711.71,-278.05 711.87,-270.63 707.21,-272.15"/>
</g>
</g>
</svg>
